<svg width="24" height="24" viewBox="0 0 24 24" fill="none" xmlns="http://www.w3.org/2000/svg">
<path d="M10.936 5.49C12.268 5.49 13.432 5.748 14.428 6.264C15.436 6.768 16.21 7.5 16.75 8.46C17.302 9.408 17.578 10.518 17.578 11.79C17.578 13.062 17.302 14.166 16.75 15.102C16.21 16.038 15.436 16.758 14.428 17.262C13.432 17.754 12.268 18 10.936 18H6.85V5.49H10.936ZM10.936 16.326C12.4 16.326 13.522 15.93 14.302 15.138C15.082 14.346 15.472 13.23 15.472 11.79C15.472 10.338 15.082 9.204 14.302 8.388C13.522 7.572 12.4 7.164 10.936 7.164H8.902V16.326H10.936Z" fill="#1F3BAD"/>
</svg>
