<svg width="24" height="24" viewBox="0 0 24 24" fill="none" xmlns="http://www.w3.org/2000/svg">
<path d="M15.534 20.268L13.338 17.892C12.798 18.048 12.204 18.126 11.556 18.126C10.392 18.126 9.318 17.856 8.334 17.316C7.362 16.764 6.588 16.002 6.012 15.03C5.448 14.046 5.166 12.942 5.166 11.718C5.166 10.494 5.448 9.396 6.012 8.424C6.588 7.452 7.362 6.696 8.334 6.156C9.318 5.604 10.392 5.328 11.556 5.328C12.732 5.328 13.806 5.604 14.778 6.156C15.762 6.696 16.536 7.452 17.1 8.424C17.664 9.396 17.946 10.494 17.946 11.718C17.946 12.87 17.694 13.914 17.19 14.85C16.698 15.774 16.014 16.518 15.138 17.082L18.144 20.268H15.534ZM7.272 11.718C7.272 12.642 7.452 13.458 7.812 14.166C8.184 14.862 8.694 15.402 9.342 15.786C9.99 16.158 10.728 16.344 11.556 16.344C12.384 16.344 13.122 16.158 13.77 15.786C14.418 15.402 14.922 14.862 15.282 14.166C15.654 13.458 15.84 12.642 15.84 11.718C15.84 10.794 15.654 9.984 15.282 9.288C14.922 8.592 14.418 8.058 13.77 7.686C13.122 7.314 12.384 7.128 11.556 7.128C10.728 7.128 9.99 7.314 9.342 7.686C8.694 8.058 8.184 8.592 7.812 9.288C7.452 9.984 7.272 10.794 7.272 11.718Z" fill="#1F3BAD"/>
</svg>
