<svg width="24" height="24" viewBox="0 0 24 24" fill="none" xmlns="http://www.w3.org/2000/svg">
<path d="M11.972 18.126C11.132 18.126 10.376 17.982 9.704 17.694C9.032 17.394 8.504 16.974 8.12 16.434C7.736 15.894 7.544 15.264 7.544 14.544H9.74C9.788 15.084 9.998 15.528 10.37 15.876C10.754 16.224 11.288 16.398 11.972 16.398C12.68 16.398 13.232 16.23 13.628 15.894C14.024 15.546 14.222 15.102 14.222 14.562C14.222 14.142 14.096 13.8 13.844 13.536C13.604 13.272 13.298 13.068 12.926 12.924C12.566 12.78 12.062 12.624 11.414 12.456C10.598 12.24 9.932 12.024 9.416 11.808C8.912 11.58 8.48 11.232 8.12 10.764C7.76 10.296 7.58 9.672 7.58 8.892C7.58 8.172 7.76 7.542 8.12 7.002C8.48 6.462 8.984 6.048 9.632 5.76C10.28 5.472 11.03 5.328 11.882 5.328C13.094 5.328 14.084 5.634 14.852 6.246C15.632 6.846 16.064 7.674 16.148 8.73H13.88C13.844 8.274 13.628 7.884 13.232 7.56C12.836 7.236 12.314 7.074 11.666 7.074C11.078 7.074 10.598 7.224 10.226 7.524C9.854 7.824 9.668 8.256 9.668 8.82C9.668 9.204 9.782 9.522 10.01 9.774C10.25 10.014 10.55 10.206 10.91 10.35C11.27 10.494 11.762 10.65 12.386 10.818C13.214 11.046 13.886 11.274 14.402 11.502C14.93 11.73 15.374 12.084 15.734 12.564C16.106 13.032 16.292 13.662 16.292 14.454C16.292 15.09 16.118 15.69 15.77 16.254C15.434 16.818 14.936 17.274 14.276 17.622C13.628 17.958 12.86 18.126 11.972 18.126Z" fill="#1F3BAD"/>
</svg>
