<svg width="320" height="240" viewBox="0 0 320 240" fill="none" xmlns="http://www.w3.org/2000/svg">
<path fill-rule="evenodd" clip-rule="evenodd" d="M230.725 176.884C229.314 178.516 227.229 179.728 225.63 181.22C223.951 182.788 222.128 184.158 220.455 185.707C213.076 176.688 202.967 171.157 194.21 163.673C190.058 160.125 186.999 155.312 184.761 150.373C183.614 147.84 182.766 145.234 182.102 142.537C181.804 141.322 181.511 140.111 181.316 138.879C181.079 137.388 181.018 137.26 180.012 136.096C179.579 135.595 178.74 134.132 177.891 134.293C177.177 134.429 175.871 136.602 175.42 137.139C173.25 139.721 171.146 142.382 168.862 144.864C165.366 148.662 162.184 152.4 158.939 156.425C152.3 164.661 145.139 172.414 137.913 180.164C137.377 180.739 136.127 182.424 135.357 182.65C134.421 182.926 132.899 181.777 131.956 181.135C129.68 179.586 127.887 177.668 125.941 175.748C122.144 172 119.574 166.74 117.844 161.735C116.809 158.739 116.136 155.634 115.067 152.648C114.622 151.404 113.613 149.874 114.125 148.79C114.278 148.467 115.249 147.609 115.591 147.543C115.996 147.465 116.672 148.021 116.812 147.982C118.156 147.615 117.41 146.208 118.21 145.451C118.663 145.022 120.968 145.085 121.656 144.849C124.172 143.985 126.429 142.339 128.807 141.356C138.764 137.243 148.843 133.241 157.439 126.523C159.668 124.781 161.149 123.472 163.809 122.346C166.498 121.209 169.2 120.194 171.943 119.201C174.363 118.325 176.796 117.504 179.296 116.876C181.999 116.197 185.834 115.336 188.534 116.21C193.839 117.928 195.551 122.298 197.664 126.908C200.521 133.146 203.977 139.048 207.723 144.79C214.929 155.836 223.693 165.748 230.725 176.884Z" fill="#3352CC"/>
<path fill-rule="evenodd" clip-rule="evenodd" d="M70.9875 79.228C70.6956 79.0799 68.4169 80.0074 68.0344 80.1493C66.5066 80.7161 65.0675 81.658 63.6281 82.4243C64.7313 83.7668 65.8347 85.1096 66.9375 86.4524C68.0188 83.8002 69.4084 81.6118 70.9875 79.228ZM71.7397 95.7296C71.3644 95.7718 74.5331 103.386 74.9031 104.241C76.2497 107.351 77.6634 110.431 79.0278 113.532C80.3497 116.538 82.0266 119.304 83.7159 122.112C85.1609 124.513 86.6472 128.24 88.8269 130.019C87.4506 123.913 87.6319 116.893 83.6844 111.766C79.5925 106.452 75.5469 101.262 71.7397 95.7296ZM230.725 177.155C224.611 167.472 216.956 158.906 210.58 149.396C207.01 144.071 203.535 138.678 200.529 133.01C198.343 128.886 196.985 123.004 193.608 119.851C192.121 118.463 190.531 117.103 188.534 116.481C185.802 115.63 182.04 116.474 179.296 117.147C174.181 118.401 169.184 120.348 164.34 122.394C159.426 124.468 155.233 128.194 150.793 131.188C146.03 134.4 140.875 136.74 135.538 138.788C130.892 140.571 126.759 143.131 122.137 144.926C121.216 145.284 119.337 145.232 118.564 145.698C117.732 146.201 118.06 147.684 117.049 148.231C116.593 148.478 116.441 147.583 116.091 147.597C115.663 147.615 115.273 148.118 114.86 148.436C113.181 149.732 114.21 150.596 114.875 152.379C117.043 158.189 118.208 164.1 121.251 169.585C123.754 174.094 127.335 178.134 131.552 181.118C132.194 181.573 134.285 183.333 135.038 183.216C135.715 183.111 137.094 181.309 137.562 180.819C139.686 178.599 141.627 176.21 143.749 173.986C147.028 170.549 150.185 167.019 153.368 163.535C157.062 159.491 160.332 154.908 163.659 150.586C165.19 148.598 167.16 146.979 168.862 145.135C171.149 142.656 173.25 139.992 175.42 137.41C176.077 136.629 177.177 134.631 178.197 134.654C178.912 134.671 180.173 136.354 180.547 136.881C181.937 138.842 181.93 142.384 182.622 144.831C184.308 150.8 187.35 156.63 191.522 161.236C195.67 165.816 200.983 169.073 205.89 172.755C211.205 176.744 216.24 180.826 220.455 185.978C222.128 184.429 223.951 183.059 225.63 181.491C227.23 179.998 229.314 178.787 230.725 177.155ZM152.016 204.548C153.205 204.561 155.218 205.292 156.282 204.851C153.127 201.361 150.23 198.366 146.239 195.809C142.098 193.154 137.97 190.524 133.948 187.692C125.841 181.987 119.878 175.22 116.492 165.718C115.62 163.271 115.036 160.705 114.397 158.19C114.053 156.835 113.369 150.498 112.207 149.951C111.518 149.626 106.337 153.268 105.516 153.721C103.597 154.783 101.67 155.606 99.6859 156.437C95.4206 158.223 91.0234 159.585 86.5003 160.722C81.0775 162.086 77.3838 159.83 74.0244 155.567C70.2131 150.732 67.0459 145.276 63.5613 140.198C61.9766 137.888 60.6638 135.582 59.4934 133.035C58.7275 131.368 55.6897 126.871 56.7394 125.095C59.7341 127.375 60.8116 131.908 62.8516 134.961C65.3941 138.766 68.2594 142.353 70.815 146.154C72.9641 149.35 75.1566 153.224 78.3316 155.521C81.1244 157.542 83.7775 156.921 86.7831 156.013C90.4259 154.912 94.2019 154.37 97.7719 153.004C101.635 151.527 105.291 149.431 109.06 147.723C110.817 146.926 112.921 146.473 114.577 145.48C116.004 144.624 115.792 144.172 115.896 142.35C116.019 140.224 116.16 138.096 116.254 135.969C116.317 134.539 115.544 132.601 116.068 131.533C111.789 132.275 107.607 133.269 103.357 134.148C101.031 134.629 98.7872 135.224 96.4369 135.602C95.5409 135.746 94.3163 135.742 93.5141 136.133C92.8741 135.949 92.5478 136.066 92.5353 136.483C92.5047 136.71 92.4563 136.933 92.3897 137.153C91.0775 137.75 90.3144 136.469 89.1763 135.241C87.7719 133.726 86.7203 132.019 85.69 130.238C83.3863 126.256 80.7309 122.511 78.5991 118.417C76.4263 114.243 74.6616 109.775 72.8194 105.445C71.1294 101.472 70.0472 97.1761 68.1797 93.2977C67.3463 91.5664 66.29 90.1349 65.0566 88.6724C64.0388 87.4655 62.4728 84.8621 60.9528 84.3077C60.5509 84.1611 59.4984 84.4074 59.0419 84.3749C58.1319 84.3099 57.3209 83.9758 56.3897 84.0489C54.3734 84.2068 52.1753 85.4818 50.5641 86.6027C51.6053 87.5308 54.21 88.6589 52.3391 90.3308C50.5234 91.9539 49.5206 89.0424 48.8278 87.7668C45.5653 90.4458 46.0369 94.1399 45.66 97.9252C45.4631 99.9014 44.9453 101.848 44.6113 103.794C44.3706 105.195 44.5394 106.644 44.4706 108.075C44.2953 111.709 43.93 115.188 43.9472 118.772C43.9666 122.603 44.2275 126.302 44.5341 130.105C45.05 136.507 46.2322 142.912 47.2459 149.264C47.8163 152.834 48.5969 156.303 49.3547 159.815C50.2147 163.802 51.8056 167.578 52.6978 171.554C53.6069 170.398 54.2906 170.393 55.7609 170.546C56.8919 170.664 57.6516 170.395 57.5853 171.964C57.5425 172.982 56.6444 173.76 55.6506 173.938C54.3547 174.169 53.9144 173.523 53.2466 172.541C53.0903 174.4 54.3403 176.343 54.8347 178.159C55.3025 179.879 55.6125 181.565 56.3988 183.212C57.1659 184.818 57.8228 186.402 58.5991 187.993C58.9566 188.725 59.2909 189.469 59.6525 190.199C59.8353 190.568 60.0506 191.078 60.3234 191.389C60.9634 192.12 60.8616 191.766 61.6106 192.182C63.2425 193.088 62.6297 192.862 62.6678 194.734C62.705 196.581 63.6519 197.937 65.1703 198.975C68.3919 201.178 71.5694 201.79 75.2319 202.903C78.6444 203.94 82.2388 204.83 85.8522 204.809C90.2778 204.785 94.6447 204.204 99.0703 204.146C103.953 204.081 108.882 204.107 113.755 204.276C115.762 204.346 117.626 204.435 119.564 204.947C121.814 205.543 123.991 205.307 126.31 205.216C131.258 205.024 136.377 204.641 141.261 204.607C144.777 204.582 148.487 204.336 152.016 204.548ZM280.325 206.466C281.205 206.931 283.177 206.741 284.061 206.611C285.619 206.384 285.786 205.767 286.774 204.378C288.475 201.986 289.857 199.695 290.858 196.924C292.773 191.62 293.555 186.195 294.396 180.647C295.331 174.482 293.624 168.093 293.013 161.97C292.873 160.566 292.681 159.174 292.459 157.78C292.327 156.946 292.292 154.111 291.743 153.389C290.69 152.003 285.79 153.121 283.863 153.247C278.486 153.598 273.073 153.68 267.698 153.741C264.832 153.774 261.95 153.894 259.113 153.916C257.809 153.926 256.535 153.861 255.228 153.735C254.79 153.692 254.363 153.592 253.922 153.567C252.413 153.484 252.527 153.265 252.137 154.601C251.454 156.942 251.979 159.92 251.8 162.349C251.56 165.595 251.43 168.887 251.49 172.141C251.545 175.147 251.442 178.146 251.554 181.159C251.601 182.407 251.738 183.424 252.067 184.616C252.439 185.963 252.848 189.11 253.775 190.042C253.88 190.149 254.668 189.901 254.877 190.166C255.199 190.573 255.14 191.434 255.362 191.697C256.078 192.549 257.557 192.617 258.631 193C261.576 194.05 264.278 195.19 267.054 196.606C269.534 197.872 273.533 198.949 275.024 201.445C275.708 202.589 275.8 204.098 276.429 205.279C277.145 206.624 275.712 205.921 277.467 206.466C278.257 206.712 279.515 206.466 280.325 206.466ZM18.8391 191.255C18.6159 194.361 16.8663 197.319 16.2572 200.373C15.9722 201.803 15.4888 203.208 15.1538 204.63C14.8325 205.994 13.6719 207.609 13.7894 208.958C18.0731 207.432 22.4122 207.048 26.8894 206.636C31.1328 206.246 35.6156 206.091 39.8234 206.089C44.1113 206.087 48.6959 205.668 53.1109 205.603C57.7281 205.535 62.415 205.416 66.9653 204.937C64.5859 203.175 61.6088 201.52 59.8519 199.068C57.9419 196.402 56.95 193.063 55.2694 190.251C51.8969 184.606 49.7528 177.603 47.985 171.262C44.4159 158.461 40.4275 145.897 39.4663 132.62C37.6369 133.556 36.1847 137.191 35.2688 139.001C34.0997 141.312 33.4875 143.817 32.7275 146.273C31.1625 151.332 30.0794 156.578 28.1631 161.589C24.5006 171.168 22.1466 181.489 18.8391 191.255ZM251.374 116.649C252.166 122.374 253.828 128.173 253.891 133.967C253.905 135.242 253.689 136.658 253.955 137.915C254.239 139.256 255.162 140.443 255.694 141.718C256.54 143.742 258.682 147.892 256.616 149.607C256.574 147.979 255.085 145.912 254.334 144.489C253.203 142.344 251.717 140.383 250.492 138.291C247.925 133.914 245.05 129.63 241.743 125.77C238.521 122.011 234.809 118.676 231.393 115.096C230.367 114.021 222.133 103.669 221.806 103.813C224.36 113.661 228.701 122.23 234.642 130.476C237.555 134.518 241.051 137.178 244.597 140.602C247.55 143.454 253.115 146.504 252.094 151.176C256.71 150.733 261.296 150.024 265.953 150.024C265.188 144.128 264.601 138.326 263.233 132.528C261.681 125.944 260.629 119.163 259.316 112.521C257.975 105.739 255.701 99.1743 254.286 92.4058C252.932 85.9246 251.768 79.4549 250.775 72.9014C249.954 76.5327 250.257 80.5211 249.966 84.2261C249.668 88.0114 249.697 91.7271 249.796 95.5346C249.979 102.607 250.733 109.594 251.374 116.649ZM271.376 82.9311C271.402 79.9039 271.988 76.9177 272.169 73.8977C272.225 72.9711 273.148 66.6496 272.287 66.3196C271.579 67.8627 271.414 69.8374 270.772 71.4564C270.129 73.0739 269.27 74.6149 268.654 76.2436C267.319 79.7721 266.858 83.7646 266.715 87.5158C266.389 96.0008 266.221 104.467 266.792 112.952C267.036 116.589 267.223 120.232 267.157 123.876C267.083 127.886 266.469 131.366 267.215 135.343C267.953 139.281 268.417 143.203 268.663 147.198C268.835 150.003 268.904 149.804 271.58 149.607C273.512 149.465 275.462 149.617 277.397 149.528C276.492 138.598 276.344 127.646 274.9 116.758C274.163 111.203 274.143 105.568 273.227 100.034C272.772 97.2849 272.009 94.5911 271.57 91.8389C271.099 88.8839 271.331 85.9089 271.376 82.9311ZM75.7172 76.0527C80.8681 76.4989 86.3472 78.0389 91.6269 77.0221C90.7566 76.6696 88.4791 76.1833 89.5041 74.7921C90.5463 73.3774 92.3025 75.1718 93.3419 74.9864C93.9828 74.8721 95.3991 72.193 95.7941 71.6383C96.6906 70.3777 96.7988 70.158 98.4109 69.8349C99.9728 69.5224 100.327 69.8608 100.525 68.308C100.752 66.5224 100.134 64.5149 100.195 62.6889C100.327 58.758 101.595 55.3108 102.775 51.6124C97.7606 52.7033 92.8572 53.9971 87.7297 54.7002C85.5378 55.0008 82.1278 55.6943 80.1366 54.2043C79.6188 53.8167 79.7016 53.2936 79.2778 52.8446C78.5672 52.0911 77.2491 51.3117 76.2413 51.0971C70.0391 49.7767 69.4341 58.6183 72.5422 61.9268C73.3206 62.7558 74.4038 63.1652 75.2009 63.9249C76.265 64.938 76.3522 66.0052 76.5075 67.5518C76.7988 70.4518 76.4031 73.363 75.1659 76.0158L75.7172 76.0527ZM150.981 117.793C152.812 118.141 154.723 118.061 156.559 118.358C157.211 118.463 159.166 118.831 159.74 118.45C160.615 117.867 160.927 115.732 161.341 114.738C162.069 112.989 163.099 111.463 163.793 109.682C166.631 102.408 169.277 95.1043 172.709 88.0783C171.393 87.7364 170.383 87.723 169.058 87.5464C167.677 87.3624 166.425 86.5458 165.108 86.1949C163.855 85.8614 162.543 85.9464 161.303 85.5586C160.619 85.3452 160.033 84.8705 159.359 84.7046C158.285 84.4405 157.032 84.2861 156.393 84.9911C155.738 85.7143 155.508 87.6971 155.152 88.6311C154.203 91.1196 153.101 93.5211 152.307 96.0668C151.589 98.3627 150.908 100.634 150.277 102.951C149.61 105.397 148.296 107.413 147.495 109.75C146.886 111.528 146.311 113.346 146.22 115.242C146.132 117.093 145.863 117.211 147.713 117.506C148.647 117.655 150.103 118.21 150.981 117.793ZM271.447 204.392C271.924 204.614 272.373 204.585 272.795 204.303C268.661 202.557 264.639 200.135 260.326 198.937C256.28 197.814 252.348 196.471 248.45 195.087C245.283 193.963 242.435 193.088 239.572 191.109C237.834 189.908 236.29 188.557 235.095 186.802C233.766 184.847 233.47 182.066 232.03 180.306C230.086 182.441 227.803 184.057 225.503 185.754C224.707 186.341 222.799 187.62 222.527 188.528C222.183 189.674 223.103 190.77 223.558 191.93C224.723 194.9 225.293 197.868 225.925 200.956C226.178 202.194 226.726 204.054 227.742 204.572C228.668 205.044 231.348 204.701 232.5 204.614C238.51 204.158 244.413 203.692 250.458 204.107C257.299 204.576 264.623 204.9 271.447 204.392ZM283.45 149.357C284.542 149.361 285.609 149.224 286.697 149.224C286.069 146.291 287.537 142.496 288.058 139.569C288.64 136.294 289.084 132.908 289.472 129.607C290.291 122.654 290.662 115.786 290.673 108.782C290.683 102.005 291.916 95.8118 293.644 89.2968C295.5 82.2999 298.539 76.0077 301.051 69.2599C298.295 70.7168 296.77 74.1258 295.322 76.7321C293.491 80.0274 292.272 83.6761 291.524 87.3755C290.082 94.5121 288.5 101.67 286.836 108.795C285.103 116.213 284.084 123.7 282.099 131.058C281.131 134.646 279.815 139.06 279.742 142.761C279.712 144.291 279.25 147.497 279.944 148.826C280.593 150.07 282.027 149.484 283.45 149.357ZM118.59 140.153C118.533 140.915 118.478 141.639 118.343 142.392C119.856 142.377 121.772 140.808 123.069 140.103C124.65 139.245 126.232 138.298 127.778 137.435C130.763 135.769 134.151 134.671 137.337 133.302C140.998 131.73 144.363 129.83 147.863 127.936C149.086 127.275 157.874 123.466 157.727 122.425C155.797 122.361 153.868 122.297 151.938 122.233C150.284 122.178 147.722 122.551 146.138 122.04C145.271 121.76 144.297 120.728 143.969 119.921C143.645 119.121 144.373 115.445 143.95 115.21C141.791 117.415 140.433 120.345 138.502 122.724C136.369 125.352 133.612 126.887 130.573 128.284C127.218 129.827 123.745 131.022 120.316 132.344C118.87 132.901 118.899 133.221 118.773 134.806C118.632 136.578 118.647 138.376 118.59 140.153ZM292.948 206.828C296.586 207.218 300.313 206.996 303.979 207.3C305.312 207.411 307.162 207.576 305.82 209.366C304.975 210.493 302.268 210.131 301.04 210.21C297.743 210.419 294.253 210.306 290.949 210.258C290.253 210.248 289.485 210.041 288.782 210.087C287.97 210.141 286.998 210.725 286.258 210.72C285.803 210.717 285.639 210.236 285.246 210.192C284.389 210.096 283.533 210.026 282.669 210.026C269.61 210.029 256.73 209.766 243.703 209.752C237.474 209.746 231.145 209.638 224.918 209.346C223.611 209.284 216.165 209.552 216.371 207.197C216.477 205.985 218.907 205.814 219.794 205.685C220.451 205.59 221.133 205.605 221.792 205.57C223.541 205.476 224.307 205.897 223.938 203.983C222.538 196.723 220.03 190.723 214.672 185.503C210.29 181.234 205.013 177.362 200.05 173.798C194.024 169.47 189.135 164.918 185.557 158.295C183.468 154.428 181.719 150.474 180.646 146.197C180.259 144.659 180.25 142.909 179.777 141.426C179.413 140.284 178.583 139.485 178.094 138.302C172.098 148.317 164.152 156.695 156.866 165.725C153.384 170.038 149.413 174.136 145.253 177.888C144.018 179.002 142.867 180.165 141.714 181.363C140.751 182.366 139.221 183.258 138.407 184.371C137.626 185.438 137.818 185.387 139.007 186.235C140.577 187.356 142.308 188.286 143.903 189.379C146.453 191.126 149.237 192.601 151.517 194.703C153.983 196.976 156.137 199.609 158.293 202.172C159.729 203.881 161.614 206.073 161.975 208.233C162.095 208.948 162.549 210.715 161.95 211.239C161.437 211.686 161.489 211.516 160.853 211.243C160.019 210.886 159.773 210.066 158.755 209.675C156.149 208.675 152.996 209.018 150.284 209.006C147.572 208.994 144.837 209.298 142.125 209.287C135.934 209.262 129.875 209.763 123.685 210.032C117.112 210.318 110.457 209.632 103.905 209.729C99.0509 209.801 94.0672 209.438 89.0788 209.708C86.5128 209.846 83.9928 209.526 81.4909 209.49C78.2153 209.442 74.8513 209.888 71.5475 209.951C66.125 210.056 60.7688 210.056 55.3131 210.186C43.5781 210.467 31.9066 210.757 20.1647 210.943C18.5984 210.967 16.8838 210.914 15.3359 211.091C13.6931 211.278 14.5413 211.627 13.4141 212.219C10.2584 213.874 10.9872 207.738 11.0628 206.531C11.4684 200.063 13.1103 193.72 15.0834 187.58C16.9553 181.757 18.475 175.662 20.0603 169.712C21.7956 163.201 24.0566 156.956 26.1097 150.508C28.2134 143.901 29.9263 137.037 33.7472 131.181C34.6175 129.847 35.5169 128.411 36.9169 127.571C38.4863 126.628 38.5538 127.178 38.5525 125.453C38.5516 123.828 38.6516 121.657 38.2681 120.106C37.9216 118.706 37.975 119.536 37.1947 118.53C36.5597 117.711 35.8953 117.152 35.4397 116.158C32.6409 118.996 26.2344 117.499 23.5303 115.455C20.2206 112.954 17.6997 108.734 16.7759 104.716C16.0341 101.488 16.9444 95.3368 20.5163 93.7849C22.2575 93.0283 28.6531 92.4564 28.9091 89.9908C29.0409 88.718 26.79 86.9283 26.2706 85.8339C25.3081 83.8064 24.3838 81.1096 24.1163 78.8871C23.5938 74.5489 25.5631 69.698 28.7003 66.7677C34.4553 61.3921 44.5813 58.6333 51.9841 62.0439C50.4197 56.068 49.4753 50.9127 50.2631 44.6964C50.9419 39.3411 54.1016 36.3449 58.4494 33.6774C65.8688 29.1249 75.9581 27.328 84.4416 28.6517C86.3694 28.9527 88.2194 29.598 90.0044 30.1114C92.5975 30.8574 95.7019 30.6089 98.1503 31.8208C99.9256 32.6992 101.274 34.4492 102.833 35.6177C104.653 36.9817 106.166 39.0177 107.43 40.9005C110.135 44.9267 109.078 52.3993 106.814 56.4408C106.329 57.3077 105.729 58.0374 104.926 58.6289C104.09 59.2446 102.815 59.4361 102.384 60.2346C101.281 62.2799 102.345 66.7077 102.493 68.9183C102.664 71.4852 101.366 73.4133 98.4556 73.618C96.7719 73.7368 96.7181 72.7599 95.9119 74.7699C95.3894 76.0727 94.9147 77.4921 94.1606 78.6864C92.6059 81.148 89.7584 80.9077 87.1647 80.8411C84.1622 80.7636 81.2047 80.2893 78.2006 79.9899C78.9941 82.5321 81.1659 84.5052 82.5222 86.7699C84.3559 89.833 85.4597 92.3721 85.7578 95.9408C85.9866 98.6827 85.4928 100.848 83.6166 102.889C82.84 103.733 82.1516 103.775 82.3444 104.749C82.4619 105.344 83.4897 106.324 83.8534 106.799C84.8156 108.054 85.9328 109.206 86.7797 110.546C90.0384 115.703 91.0009 123.564 91.0091 129.567C91.0094 129.842 91.1563 130.428 91.0347 130.712C90.9447 130.923 90.2609 131.589 90.2509 131.646C90.1172 132.418 90.8697 133.741 92.0506 133.872C93.2909 134.009 95.5625 132.974 96.7163 132.634C98.5625 132.09 100.444 131.688 102.287 131.129C105.262 130.226 108.223 129.506 111.248 128.798C112.615 128.479 113.989 128.213 115.361 127.914C116.923 127.574 117.648 126.917 118.454 128.506C119.146 129.87 118.716 130.117 120.391 129.43C122.055 128.747 123.68 127.901 125.304 127.13C128.168 125.771 131.58 124.56 134.051 122.554C138.172 119.207 139.698 113.878 143.643 110.327C144.742 109.338 145.397 109.321 146.091 107.951C146.835 106.485 147.218 104.605 147.609 103.028C148.293 100.267 148.781 97.4961 149.402 94.7374C150.175 91.3005 151.847 88.188 153.066 84.9099C153.542 83.6327 153.788 82.0093 154.554 80.8614C154.758 80.5571 155.146 80.3855 155.304 80.1336C155.849 79.2689 155.844 79.0314 155.985 77.9911C156.646 73.1302 159.548 75.6874 162.718 76.8021C164.054 77.2718 170.398 80.3177 167.975 82.3433C170.863 83.1811 175.488 82.7258 175.449 86.8639C175.429 88.9843 174.161 91.2524 173.48 93.2371C172.875 94.9993 172.291 96.7683 171.677 98.5277C170.332 102.382 168.699 106.121 167.387 109.986C166.788 111.748 166.294 113.551 165.461 115.214C164.727 116.681 162.948 118.298 162.654 119.902C170.349 116.619 177.468 111.873 186.08 112.176C189.852 112.308 193.274 113.893 195.357 117.209C197.968 121.365 199.686 126.019 202.238 130.213C211.523 145.472 222.597 159.335 232.789 173.962C233.572 175.086 234.579 176.149 234.851 177.538C235.028 178.445 234.684 179.351 234.897 180.222C235.338 182.031 237.565 184.29 239.076 185.33C241.972 187.323 246.679 190.134 250.292 189.886C248.024 184.436 248.055 178.464 248.16 172.651C248.26 167.128 248.857 161.651 249.566 156.185C249.726 154.949 249.866 153.802 250.221 152.604C250.629 151.229 251.189 151.359 249.967 150.123C248.087 148.22 245.851 146.654 243.956 144.727C239.857 140.561 235.655 137.295 232.429 132.319C229.361 127.586 226.124 122.716 223.853 117.533C221.515 112.198 220.58 106.5 219.419 100.85C218.948 98.5571 217.231 95.9974 217.576 93.603C218.012 90.5771 219.415 92.7805 219.987 94.4089C221.73 99.3799 225.811 103.829 229.192 107.827C232.844 112.146 237.312 115.759 241.124 119.952C245.276 124.519 248.119 129.767 251.811 134.642C251.811 128.592 249.746 122.432 248.901 116.447C248.157 111.179 247.924 105.895 247.454 100.604C246.387 88.5858 247.309 76.2136 248.807 64.2814C249.518 58.6146 249.115 53.0811 249.136 47.3949C249.143 45.5852 248.394 41.4142 249.349 39.8083C251.177 36.7324 252.244 43.4583 252.336 44.4611C252.889 50.4349 251.897 56.3421 252.404 62.2902C252.933 68.5018 254.082 74.5389 255.06 80.6786C256.119 87.3264 257.843 93.8243 259.493 100.345C261.227 107.191 262.684 114.179 264.611 120.971C265.131 118.836 264.402 116.213 264.258 114.039C264.052 110.928 263.65 107.816 263.616 104.697C263.56 99.7252 263.521 94.6614 263.803 89.713C264.08 84.8355 263.996 79.7246 265.492 75.0255C266.202 72.7952 267.243 70.6193 268.262 68.5183C269.519 65.9277 269.963 63.4158 270.659 60.6605C271.255 58.3008 272.128 56.0033 272.525 53.5964C272.772 52.0996 273.461 47.6808 275.175 51.0286C276.17 52.9718 275.74 55.8524 275.767 57.9399C275.803 60.6161 275.393 63.2183 275.331 65.8833C275.208 71.1121 275.121 76.3346 274.731 81.5546C274.322 87.0311 274.679 91.9393 275.721 97.3355C276.861 103.242 277.195 109.162 277.786 115.141C278.09 118.228 278.604 121.298 278.852 124.39C278.983 126.027 278.31 130.722 279.483 131.888C279.597 129.052 280.409 126.214 281.025 123.451C281.755 120.177 282.05 116.736 282.588 113.416C283.458 108.036 285.148 102.899 286.267 97.5802C288.571 86.6155 290.486 72.5233 300.145 65.3464C301.409 64.4074 302.798 63.7143 304.164 62.9414C304.937 62.5039 306.086 61.3721 306.971 61.1746C307.937 60.9589 308.34 61.1264 308.732 62.2471C309.278 63.8092 308.279 64.5389 307.347 65.6736C304.121 69.5999 302.743 74.633 300.751 79.2377C296.19 89.7818 294.172 100.903 294.148 112.301C294.136 118.267 293.725 124.022 293.088 129.952C292.404 136.334 291.502 143.084 289.563 149.224C291.508 149.66 293.618 149.01 294.146 151.271C294.275 151.826 294.041 152.482 294.184 153.205C294.324 153.908 294.659 154.606 294.858 155.297C295.268 156.726 295.484 158.136 295.684 159.604C296.455 165.275 297.778 170.669 297.919 176.42C298.049 181.735 297.008 187.12 296.05 192.333C295.084 197.584 292.313 202.06 290.133 206.808C291.071 206.808 292.01 206.818 292.948 206.828Z" fill="#22242A"/>
<path fill-rule="evenodd" clip-rule="evenodd" d="M169.511 194.758C168.476 195.05 163.483 195.602 163.484 197.169C163.484 198.109 168.471 198.09 169.354 198.193C169.406 197.048 169.459 195.903 169.511 194.758ZM180.533 205.57C183.41 206.117 187.316 205.348 189.156 202.811C190.016 201.626 190.423 199.823 190.703 198.408C190.971 197.06 191.795 193.696 191.234 192.432C190.545 190.88 183.934 192.502 182.008 192.68C178.649 192.99 175.176 193.027 171.814 192.808C171.814 196.279 171.637 199.661 173.678 202.648C175.151 204.804 177.917 205.312 180.533 205.57ZM179.954 209.857C176.828 208.713 173.545 209.456 171.509 206.1C170.993 205.248 170.558 204.333 170.245 203.387C170.093 202.972 169.974 202.548 169.889 202.113C170.049 201.178 169.706 200.914 168.861 201.322C167.204 200.999 165.387 202.137 163.641 201.802C159.408 200.988 160.177 194.924 163.018 192.824C163.579 192.409 164.14 192.294 164.782 192.089C166.199 191.638 166.965 192.142 168.26 192.014C169.307 191.91 169.595 190.813 170.72 190.329C171.457 190.013 172.479 190.037 173.254 190.005C177.306 189.839 181.371 189.84 185.45 189.576C187.352 189.453 189.406 189.754 191.269 189.429C192.142 189.277 192.016 188.696 192.843 189.206C193.698 189.733 193.329 191.684 193.285 192.462C193.036 196.959 192.768 201.783 190.359 205.715C188.154 209.313 183.816 209.681 179.954 209.857Z" fill="#22242A"/>
<path fill-rule="evenodd" clip-rule="evenodd" d="M14.8333 211.096C15.8392 211.085 16.8449 211.075 17.8474 211.064C16.8402 211.075 15.8367 211.085 14.8333 211.096Z" fill="#22242A"/>
<path fill-rule="evenodd" clip-rule="evenodd" d="M294.155 115.197C294.153 114.231 294.151 113.265 294.148 112.3C294.15 113.267 294.152 114.232 294.155 115.197Z" fill="#22242A"/>
<path fill-rule="evenodd" clip-rule="evenodd" d="M38.2712 119.165C38.268 120.107 38.2649 121.048 38.2618 121.987C38.2646 121.045 38.2677 120.105 38.2712 119.165Z" fill="#22242A"/>
<path fill-rule="evenodd" clip-rule="evenodd" d="M121.887 210.029C122.687 210.03 123.487 210.031 124.284 210.033C123.482 210.032 122.685 210.031 121.887 210.029Z" fill="#22242A"/>
<path fill-rule="evenodd" clip-rule="evenodd" d="M73.2937 209.837C74.094 209.84 74.894 209.842 75.6906 209.845C74.889 209.843 74.0915 209.84 73.2937 209.837Z" fill="#22242A"/>
<path fill-rule="evenodd" clip-rule="evenodd" d="M248.266 170.746C248.231 171.381 248.195 172.016 248.16 172.65C248.195 172.015 248.231 171.38 248.266 170.746Z" fill="#22242A"/>
<path fill-rule="evenodd" clip-rule="evenodd" d="M292.949 206.828C292.33 206.821 291.712 206.815 291.093 206.808C291.715 206.549 292.333 206.561 292.949 206.828Z" fill="#22242A"/>
<path fill-rule="evenodd" clip-rule="evenodd" d="M238.04 209.641C238.484 209.634 238.928 209.627 239.368 209.62C238.923 209.626 238.482 209.634 238.04 209.641Z" fill="#22242A"/>
<path fill-rule="evenodd" clip-rule="evenodd" d="M293.914 123.037C293.925 122.557 293.936 122.077 293.947 121.598C293.936 122.079 293.925 122.558 293.914 123.037Z" fill="#22242A"/>
<path fill-rule="evenodd" clip-rule="evenodd" d="M252.404 62.2903C252.368 61.795 252.331 61.3 252.294 60.8059C252.331 61.3015 252.368 61.7959 252.404 62.2903Z" fill="#22242A"/>
<path fill-rule="evenodd" clip-rule="evenodd" d="M294.133 117.089C294.139 116.592 294.145 116.096 294.151 115.601C294.145 116.098 294.139 116.593 294.133 117.089Z" fill="#22242A"/>
<path fill-rule="evenodd" clip-rule="evenodd" d="M154.544 209.025C154.939 209.031 155.333 209.036 155.725 209.041C155.329 209.035 154.937 209.03 154.544 209.025Z" fill="#22242A"/>
<path fill-rule="evenodd" clip-rule="evenodd" d="M256.202 209.834C256.588 209.842 256.974 209.85 257.356 209.858C256.969 209.85 256.585 209.842 256.202 209.834Z" fill="#22242A"/>
<path fill-rule="evenodd" clip-rule="evenodd" d="M297.875 174.925C297.847 174.49 297.819 174.054 297.792 173.62C297.82 174.055 297.848 174.49 297.875 174.925Z" fill="#22242A"/>
<path fill-rule="evenodd" clip-rule="evenodd" d="M290.949 210.258C291.263 210.256 291.577 210.254 291.888 210.253C291.573 210.256 291.261 210.257 290.949 210.258Z" fill="#22242A"/>
<path fill-rule="evenodd" clip-rule="evenodd" d="M248.162 209.855C248.473 209.847 248.784 209.839 249.092 209.832C248.78 209.84 248.471 209.847 248.162 209.855Z" fill="#22242A"/>
<path fill-rule="evenodd" clip-rule="evenodd" d="M178.26 209.617C178.602 209.615 178.944 209.613 179.283 209.611C178.94 209.613 178.6 209.615 178.26 209.617Z" fill="#22242A"/>
<path fill-rule="evenodd" clip-rule="evenodd" d="M99.3194 209.616C99.6447 209.618 99.9703 209.62 100.292 209.623C99.9657 209.621 99.6425 209.619 99.3194 209.616Z" fill="#22242A"/>
<path fill-rule="evenodd" clip-rule="evenodd" d="M80.116 209.668C80.4478 209.65 80.7791 209.631 81.1078 209.613C80.775 209.632 80.4457 209.65 80.116 209.668Z" fill="#22242A"/>
<path fill-rule="evenodd" clip-rule="evenodd" d="M172.055 83.2251C171.561 83.1826 171.067 83.1401 170.574 83.0973C171.068 83.132 171.591 82.8394 172.055 83.2251Z" fill="#22242A"/>
<path fill-rule="evenodd" clip-rule="evenodd" d="M297.922 207.015C297.435 206.966 296.948 206.917 296.461 206.868C296.948 206.917 297.435 206.966 297.922 207.015Z" fill="#22242A"/>
<path fill-rule="evenodd" clip-rule="evenodd" d="M263.962 86.2228C263.929 86.6493 263.896 87.0762 263.864 87.5015C263.896 87.0743 263.929 86.6484 263.962 86.2228Z" fill="#22242A"/>
<path fill-rule="evenodd" clip-rule="evenodd" d="M294.255 104.008C294.288 103.603 294.322 103.199 294.355 102.796C294.322 103.201 294.288 103.604 294.255 104.008Z" fill="#22242A"/>
<path fill-rule="evenodd" clip-rule="evenodd" d="M263.768 92.8398C263.733 93.2658 263.698 93.6914 263.663 94.1158C263.698 93.6895 263.733 93.2645 263.768 92.8398Z" fill="#22242A"/>
<path fill-rule="evenodd" clip-rule="evenodd" d="M294.049 120.332C294.046 119.921 294.043 119.509 294.04 119.099C294.306 119.509 294.295 119.92 294.049 120.332Z" fill="#22242A"/>
<path fill-rule="evenodd" clip-rule="evenodd" d="M248.273 179.436C248.269 179.848 248.265 180.261 248.261 180.672C247.989 180.256 248.043 179.845 248.273 179.436Z" fill="#22242A"/>
<path fill-rule="evenodd" clip-rule="evenodd" d="M279.305 131.71C279.257 131.293 279.209 130.875 279.162 130.459C279.21 130.877 279.257 131.294 279.305 131.71Z" fill="#22242A"/>
<path fill-rule="evenodd" clip-rule="evenodd" d="M22.3468 93.3883C22.024 93.8149 21.5843 93.5227 21.2006 93.5746C21.5831 93.5124 21.9649 93.4505 22.3468 93.3883Z" fill="#22242A"/>
<path fill-rule="evenodd" clip-rule="evenodd" d="M181.969 189.872C181.561 189.873 181.154 189.873 180.746 189.874C181.154 189.873 181.561 189.872 181.969 189.872Z" fill="#22242A"/>
<path fill-rule="evenodd" clip-rule="evenodd" d="M247.125 95.1411C247.163 95.488 247.201 95.8349 247.239 96.1805C247.201 95.833 247.163 95.4871 247.125 95.1411Z" fill="#22242A"/>
<path fill-rule="evenodd" clip-rule="evenodd" d="M45.5785 60.6906C45.1685 60.6987 44.7585 60.7068 44.3485 60.7149C44.7541 60.4762 45.1629 60.4071 45.5785 60.6906Z" fill="#22242A"/>
<path fill-rule="evenodd" clip-rule="evenodd" d="M263.758 98.84C263.731 99.2037 263.705 99.5672 263.679 99.9293C263.705 99.5656 263.731 99.2028 263.758 98.84Z" fill="#22242A"/>
<path fill-rule="evenodd" clip-rule="evenodd" d="M252.514 54.1892C252.546 53.8577 252.578 53.5261 252.609 53.1964C252.577 53.5286 252.546 53.8589 252.514 54.1892Z" fill="#22242A"/>
<path fill-rule="evenodd" clip-rule="evenodd" d="M249.293 53.1506C249.26 53.5103 249.228 53.8703 249.196 54.2288C249.228 53.8684 249.26 53.5094 249.293 53.1506Z" fill="#22242A"/>
<path fill-rule="evenodd" clip-rule="evenodd" d="M71.2008 29.1219C70.7836 29.1726 70.3665 29.2232 69.9496 29.2735C70.3668 29.2229 70.7836 29.1726 71.2008 29.1219Z" fill="#22242A"/>
<path fill-rule="evenodd" clip-rule="evenodd" d="M41.0684 60.9771C40.6403 61.0208 40.2121 61.0645 39.7843 61.1083C40.2125 61.0645 40.6406 61.0208 41.0684 60.9771Z" fill="#22242A"/>
<path fill-rule="evenodd" clip-rule="evenodd" d="M275.673 62.0314C275.699 61.6967 275.725 61.3617 275.751 61.0289C275.725 61.3639 275.699 61.6977 275.673 62.0314Z" fill="#22242A"/>
<path fill-rule="evenodd" clip-rule="evenodd" d="M27.0165 117.268C27.2631 117.271 27.5093 117.275 27.7521 117.279C27.5046 117.275 27.2606 117.271 27.0165 117.268Z" fill="#22242A"/>
<path fill-rule="evenodd" clip-rule="evenodd" d="M249.305 158.576C249.28 158.946 249.256 159.317 249.231 159.686C249.256 159.316 249.281 158.946 249.305 158.576Z" fill="#22242A"/>
<path fill-rule="evenodd" clip-rule="evenodd" d="M274.457 86.4502C274.447 86.093 274.437 85.7361 274.427 85.3799C274.437 85.7374 274.447 86.0936 274.457 86.4502Z" fill="#22242A"/>
<path fill-rule="evenodd" clip-rule="evenodd" d="M81.7028 28.2768C81.3225 28.2768 80.9422 28.2771 80.5625 28.2771C80.9428 28.0159 81.3228 28.0225 81.7028 28.2768Z" fill="#22242A"/>
<path fill-rule="evenodd" clip-rule="evenodd" d="M183.238 112.347C182.821 112.357 182.404 112.368 181.988 112.378C182.398 112.089 182.814 112.082 183.238 112.347Z" fill="#22242A"/>
<path fill-rule="evenodd" clip-rule="evenodd" d="M219.64 209.01C219.887 209.015 220.134 209.021 220.378 209.027C220.13 209.022 219.885 209.016 219.64 209.01Z" fill="#22242A"/>
<path fill-rule="evenodd" clip-rule="evenodd" d="M228.939 209.444C229.186 209.436 229.433 209.427 229.676 209.418C229.428 209.427 229.184 209.436 228.939 209.444Z" fill="#22242A"/>
<path fill-rule="evenodd" clip-rule="evenodd" d="M83.4097 209.616C83.6669 209.623 83.924 209.629 84.1778 209.635C83.9197 209.629 83.6647 209.623 83.4097 209.616Z" fill="#22242A"/>
<path fill-rule="evenodd" clip-rule="evenodd" d="M297.661 170.792C297.625 170.439 297.588 170.086 297.551 169.734C297.588 170.088 297.625 170.44 297.661 170.792Z" fill="#22242A"/>
<path fill-rule="evenodd" clip-rule="evenodd" d="M264.073 111.262C264.102 111.598 264.131 111.935 264.16 112.269C264.131 111.932 264.102 111.597 264.073 111.262Z" fill="#22242A"/>
<path fill-rule="evenodd" clip-rule="evenodd" d="M276.999 105.484C276.959 105.127 276.919 104.77 276.879 104.414C276.919 104.771 276.959 105.127 276.999 105.484Z" fill="#22242A"/>
<path fill-rule="evenodd" clip-rule="evenodd" d="M85.4962 209.829C85.7556 209.825 86.0153 209.821 86.2719 209.817C86.0112 209.822 85.7537 209.825 85.4962 209.829Z" fill="#22242A"/>
<path fill-rule="evenodd" clip-rule="evenodd" d="M179.954 209.857C180.207 209.846 180.459 209.834 180.708 209.823C180.455 209.835 180.205 209.846 179.954 209.857Z" fill="#22242A"/>
<path fill-rule="evenodd" clip-rule="evenodd" d="M274.889 79.4246C274.878 79.0631 274.866 78.7015 274.855 78.3406C274.867 78.7024 274.878 79.0634 274.889 79.4246Z" fill="#22242A"/>
<path fill-rule="evenodd" clip-rule="evenodd" d="M60.9014 210.065C61.1546 210.063 61.4074 210.061 61.6571 210.059C61.4027 210.062 61.1524 210.063 60.9014 210.065Z" fill="#22242A"/>
<path fill-rule="evenodd" clip-rule="evenodd" d="M274.783 210.062C275.043 210.064 275.304 210.067 275.56 210.07C275.299 210.067 275.041 210.064 274.783 210.062Z" fill="#22242A"/>
<path fill-rule="evenodd" clip-rule="evenodd" d="M280.401 210.031C280.652 210.048 280.903 210.066 281.151 210.084C280.899 210.066 280.65 210.048 280.401 210.031Z" fill="#22242A"/>
<path fill-rule="evenodd" clip-rule="evenodd" d="M282.669 210.026C282.925 210.034 283.181 210.041 283.433 210.047C283.177 210.039 282.923 210.033 282.669 210.026Z" fill="#22242A"/>
<path fill-rule="evenodd" clip-rule="evenodd" d="M294.318 106.917C294.301 106.561 294.285 106.205 294.268 105.851C294.285 106.207 294.301 106.562 294.318 106.917Z" fill="#22242A"/>
<path fill-rule="evenodd" clip-rule="evenodd" d="M122.651 205.365C123.429 205.324 124.207 205.284 124.985 205.243C124.207 205.284 123.429 205.324 122.651 205.365Z" fill="#22242A"/>
<path fill-rule="evenodd" clip-rule="evenodd" d="M75.7172 76.0529C76.3925 76.1116 77.0678 76.1704 77.7425 76.2285C77.0672 76.1701 76.3922 76.1113 75.7172 76.0529Z" fill="#22242A"/>
<path fill-rule="evenodd" clip-rule="evenodd" d="M266.388 105.413C266.409 106.057 266.431 106.701 266.452 107.344C266.43 106.699 266.409 106.056 266.388 105.413Z" fill="#22242A"/>
<path fill-rule="evenodd" clip-rule="evenodd" d="M280.325 206.466C281.03 206.509 281.735 206.552 282.44 206.594C281.73 206.627 281.01 206.829 280.325 206.466Z" fill="#22242A"/>
<path fill-rule="evenodd" clip-rule="evenodd" d="M276.153 130.246C276.159 129.631 276.164 129.016 276.169 128.403C276.164 129.018 276.159 129.632 276.153 130.246Z" fill="#22242A"/>
<path fill-rule="evenodd" clip-rule="evenodd" d="M274.349 149.558C274.967 149.566 275.586 149.575 276.204 149.583C275.586 149.575 274.967 149.566 274.349 149.558Z" fill="#22242A"/>
<path fill-rule="evenodd" clip-rule="evenodd" d="M118.635 138.752C118.619 139.22 118.604 139.689 118.589 140.155C118.605 139.686 118.62 139.219 118.635 138.752Z" fill="#22242A"/>
<path fill-rule="evenodd" clip-rule="evenodd" d="M284.644 118.916C284.618 119.382 284.593 119.848 284.568 120.312C284.594 119.846 284.619 119.381 284.644 118.916Z" fill="#22242A"/>
<path fill-rule="evenodd" clip-rule="evenodd" d="M271.447 204.392C271.897 204.361 272.347 204.331 272.796 204.302C272.457 204.573 272.117 204.595 271.447 204.392Z" fill="#22242A"/>
<path fill-rule="evenodd" clip-rule="evenodd" d="M268.435 143.455C268.466 143.958 268.497 144.46 268.528 144.961C268.497 144.458 268.466 143.957 268.435 143.455Z" fill="#22242A"/>
<path fill-rule="evenodd" clip-rule="evenodd" d="M100.181 64.1412C100.185 63.6559 100.19 63.1706 100.195 62.6871C100.19 63.1731 100.186 63.6571 100.181 64.1412Z" fill="#22242A"/>
<path fill-rule="evenodd" clip-rule="evenodd" d="M268.98 149.66L270.657 149.623C270.104 149.891 269.545 149.9 268.98 149.66Z" fill="#22242A"/>
<path fill-rule="evenodd" clip-rule="evenodd" d="M284.453 153.241C284.058 153.245 283.662 153.248 283.27 153.252C283.666 153.249 284.06 153.245 284.453 153.241Z" fill="#22242A"/>
<path fill-rule="evenodd" clip-rule="evenodd" d="M139.619 204.585C140.166 204.592 140.714 204.6 141.261 204.606C140.709 204.883 140.161 204.922 139.619 204.585Z" fill="#22242A"/>
<path fill-rule="evenodd" clip-rule="evenodd" d="M36.484 206.198C37.0396 206.149 37.5955 206.099 38.1512 206.049C37.5955 206.099 37.0396 206.149 36.484 206.198Z" fill="#22242A"/>
<path fill-rule="evenodd" clip-rule="evenodd" d="M266.581 109.551C266.608 110.056 266.635 110.56 266.663 111.063C266.635 110.558 266.608 110.055 266.581 109.551Z" fill="#22242A"/>
<path fill-rule="evenodd" clip-rule="evenodd" d="M89.2242 77.2369C89.6926 77.006 90.1648 76.9673 90.6417 77.2119C90.1689 77.2204 89.6967 77.2288 89.2242 77.2369Z" fill="#22242A"/>
<path fill-rule="evenodd" clip-rule="evenodd" d="M251.258 115.375C251.297 115.801 251.336 116.226 251.374 116.65C251.335 116.225 251.297 115.8 251.258 115.375Z" fill="#22242A"/>
<path fill-rule="evenodd" clip-rule="evenodd" d="M290.829 105.448C290.588 105.032 290.597 104.618 290.841 104.208C290.837 104.622 290.833 105.035 290.829 105.448Z" fill="#22242A"/>
<path fill-rule="evenodd" clip-rule="evenodd" d="M266.658 90.998C266.658 91.419 266.658 91.8402 266.658 92.2599C266.658 91.838 266.658 91.418 266.658 90.998Z" fill="#22242A"/>
<path fill-rule="evenodd" clip-rule="evenodd" d="M283.45 149.357C283.932 149.209 284.414 149 284.894 149.362C284.413 149.361 283.931 149.359 283.45 149.357Z" fill="#22242A"/>
<path fill-rule="evenodd" clip-rule="evenodd" d="M127.635 205.174C128.121 205.129 128.606 205.084 129.091 205.039C128.606 205.084 128.121 205.129 127.635 205.174Z" fill="#22242A"/>
<path fill-rule="evenodd" clip-rule="evenodd" d="M61.1215 205.175C61.5658 204.98 62.0093 204.877 62.4471 205.19C62.0049 205.185 61.5633 205.18 61.1215 205.175Z" fill="#22242A"/>
<path fill-rule="evenodd" clip-rule="evenodd" d="M152.016 204.548C152.492 204.341 152.966 204.227 153.435 204.563C152.962 204.558 152.489 204.553 152.016 204.548Z" fill="#22242A"/>
<path fill-rule="evenodd" clip-rule="evenodd" d="M46.2386 143.072C46.2743 143.501 46.3102 143.93 46.3455 144.358C46.3096 143.928 46.274 143.5 46.2386 143.072Z" fill="#22242A"/>
<path fill-rule="evenodd" clip-rule="evenodd" d="M156.559 118.358C157.026 118.188 157.492 118.099 157.951 118.383C157.487 118.375 157.023 118.366 156.559 118.358Z" fill="#22242A"/>
<path fill-rule="evenodd" clip-rule="evenodd" d="M266.574 131.13C266.6 131.549 266.626 131.969 266.651 132.387C266.625 131.967 266.599 131.549 266.574 131.13Z" fill="#22242A"/>
<path fill-rule="evenodd" clip-rule="evenodd" d="M45.9365 93.2886C45.8978 93.6264 45.859 93.9645 45.8206 94.3005C45.8593 93.962 45.8978 93.6254 45.9365 93.2886Z" fill="#22242A"/>
<path fill-rule="evenodd" clip-rule="evenodd" d="M18.8391 191.255C18.8151 191.584 18.7913 191.912 18.7676 192.239C18.7923 191.91 18.8157 191.582 18.8391 191.255Z" fill="#22242A"/>
<path fill-rule="evenodd" clip-rule="evenodd" d="M276.36 133.349C276.334 133.009 276.308 132.669 276.282 132.331C276.308 132.671 276.334 133.01 276.36 133.349Z" fill="#22242A"/>
<path fill-rule="evenodd" clip-rule="evenodd" d="M242.314 203.913C242.73 203.916 243.147 203.919 243.563 203.922C243.147 203.919 242.73 203.916 242.314 203.913Z" fill="#22242A"/>
<path fill-rule="evenodd" clip-rule="evenodd" d="M118.477 141.645C118.555 141.893 118.633 142.14 118.711 142.388C118.191 142.514 118.113 142.266 118.477 141.645Z" fill="#22242A"/>
<path fill-rule="evenodd" clip-rule="evenodd" d="M149.712 117.798C150.135 117.797 150.558 117.795 150.982 117.793C150.559 117.994 150.136 118.132 149.712 117.798Z" fill="#22242A"/>
<path fill-rule="evenodd" clip-rule="evenodd" d="M46.4758 145.103C46.4901 145.478 46.5045 145.853 46.5183 146.227C46.5036 145.852 46.4895 145.477 46.4758 145.103Z" fill="#22242A"/>
<path fill-rule="evenodd" clip-rule="evenodd" d="M50.9521 205.585C51.3605 205.585 51.7687 205.585 52.1771 205.584C51.7683 205.585 51.3605 205.585 50.9521 205.585Z" fill="#22242A"/>
<path fill-rule="evenodd" clip-rule="evenodd" d="M252.285 149.057C252.3 149.402 252.316 149.748 252.331 150.091C252.316 149.745 252.301 149.401 252.285 149.057Z" fill="#22242A"/>
<path fill-rule="evenodd" clip-rule="evenodd" d="M42.2814 206.006C42.683 205.74 43.0855 205.763 43.4886 206.002C43.0861 206.003 42.6836 206.005 42.2814 206.006Z" fill="#22242A"/>
<path fill-rule="evenodd" clip-rule="evenodd" d="M52.8558 88.4645C52.8773 88.817 52.8992 89.1698 52.9217 89.5201C52.9001 89.167 52.878 88.8157 52.8558 88.4645Z" fill="#22242A"/>
<path fill-rule="evenodd" clip-rule="evenodd" d="M40.1922 206.042C40.6097 206.044 41.0272 206.046 41.4444 206.048C41.0256 206.333 40.6084 206.346 40.1922 206.042Z" fill="#22242A"/>
<path fill-rule="evenodd" clip-rule="evenodd" d="M271.376 82.931C271.379 82.5729 271.383 82.2151 271.386 81.8579C271.382 82.2163 271.379 82.5735 271.376 82.931Z" fill="#22242A"/>
<path fill-rule="evenodd" clip-rule="evenodd" d="M79.7043 76.6685C80.1037 76.7206 80.503 76.7728 80.9021 76.8247C80.5027 76.7725 80.1033 76.7206 79.7043 76.6685Z" fill="#22242A"/>
<path fill-rule="evenodd" clip-rule="evenodd" d="M44.462 107.574C44.4673 107.909 44.4726 108.243 44.4789 108.576C44.4735 108.241 44.4679 107.908 44.462 107.574Z" fill="#22242A"/>
<path fill-rule="evenodd" clip-rule="evenodd" d="M274.065 107.526C274.043 107.186 274.021 106.845 273.999 106.506C274.021 106.847 274.043 107.187 274.065 107.526Z" fill="#22242A"/>
<path fill-rule="evenodd" clip-rule="evenodd" d="M180.917 205.643C181.41 205.688 181.903 205.733 182.395 205.777C181.902 205.732 181.41 205.688 180.917 205.643Z" fill="#22242A"/>
<path fill-rule="evenodd" clip-rule="evenodd" d="M179.271 192.886C179.004 192.89 178.738 192.894 178.474 192.9C178.741 192.897 179.006 192.891 179.271 192.886Z" fill="#22242A"/>
<path fill-rule="evenodd" clip-rule="evenodd" d="M179.293 205.448C179.706 205.489 180.12 205.53 180.533 205.57C180.12 205.529 179.706 205.489 179.293 205.448Z" fill="#22242A"/>
<path fill-rule="evenodd" clip-rule="evenodd" d="M104.911 177.614C105.449 180.653 100.727 183.625 100.352 179.305C100.216 177.726 101.272 176.615 102.455 175.649C104.133 174.279 105.071 175.591 104.911 177.614Z" fill="#22242A"/>
<path fill-rule="evenodd" clip-rule="evenodd" d="M52.8576 140.54C53.9701 140.995 62.4698 143.765 58.0548 145.158C56.8861 145.527 55.1195 145.582 54.1064 144.932C52.8876 144.15 51.6583 141.843 52.8576 140.54Z" fill="#22242A"/>
<path fill-rule="evenodd" clip-rule="evenodd" d="M54.9494 99.3887C57.8344 99.0537 60.4925 103.792 56.9356 103.638C54.3465 103.526 50.8647 99.3887 54.9494 99.3887Z" fill="#22242A"/>
<path fill-rule="evenodd" clip-rule="evenodd" d="M65.2698 111.007C67.6788 113.109 63.2135 117.813 61.4407 115.992C60.5354 115.062 61.3704 113.059 62.1176 112.281C62.8844 111.482 64.2488 111.332 65.2698 111.007Z" fill="#22242A"/>
<path fill-rule="evenodd" clip-rule="evenodd" d="M72.4416 165.497C71.0194 165.723 64.7651 167.767 66.0694 164.055C66.5669 162.639 67.9544 163.059 69.2229 163.124C71.2672 163.228 72.4416 163.131 72.4416 165.497Z" fill="#22242A"/>
<path fill-rule="evenodd" clip-rule="evenodd" d="M68.3218 175.059C70.4508 176.198 67.3387 182.572 65.574 181.216C63.1255 179.334 66.4743 175.631 68.3218 175.059Z" fill="#22242A"/>
<path fill-rule="evenodd" clip-rule="evenodd" d="M77.6074 169.935C78.6427 169.512 83.523 174.206 81.6652 175.512C80.713 176.182 78.9089 175.034 78.3349 174.342C77.2586 173.045 77.1611 171.444 77.6074 169.935Z" fill="#22242A"/>
<path fill-rule="evenodd" clip-rule="evenodd" d="M49.4504 131.564C50.5085 131.738 52.3354 131.793 52.4038 133.28C52.4638 134.587 50.8254 135.01 49.6719 135.113C48.4751 135.219 46.8907 134.881 46.8679 133.377C46.8438 131.753 49.4129 131.851 49.4504 131.564Z" fill="#22242A"/>
<path fill-rule="evenodd" clip-rule="evenodd" d="M75.5434 196.268C76.6703 196.952 81.9266 199.415 79.6734 201.195C78.8303 201.861 76.2744 200.485 75.6991 199.786C75.0125 198.952 74.3416 196.997 75.5434 196.268Z" fill="#22242A"/>
<path fill-rule="evenodd" clip-rule="evenodd" d="M90.1553 178.395C89.9925 175.676 94.5794 174.594 93.6285 178.453C93.3603 179.541 93.101 181.193 91.7556 181.256C90.1656 181.331 90.1081 179.449 90.1553 178.395Z" fill="#22242A"/>
<path fill-rule="evenodd" clip-rule="evenodd" d="M75.986 131.117C76.0179 133.179 72.066 134.998 72.0354 131.729C72.0082 128.808 76.1335 127.953 75.986 131.117Z" fill="#22242A"/>
<path fill-rule="evenodd" clip-rule="evenodd" d="M73.3765 120.375C74.3502 120.689 75.6443 120.85 75.7299 122.087C75.8208 123.397 74.6046 123.98 73.5102 123.906C72.6127 123.846 71.2846 123.182 71.1215 122.208C70.8824 120.778 72.2774 120.685 73.3765 120.375Z" fill="#22242A"/>
<path fill-rule="evenodd" clip-rule="evenodd" d="M55.2694 158.135C55.2528 156.434 58.6635 154.388 59.2916 156.363C59.4925 156.995 57.885 159.828 57.3503 160.04C55.9357 160.602 55.7382 159.293 55.2694 158.135Z" fill="#22242A"/>
<path fill-rule="evenodd" clip-rule="evenodd" d="M83.2177 186.461C82.0652 187.493 78.608 190.391 78.8665 186.501C79.0315 184.016 83.5218 184.145 83.2177 186.461Z" fill="#22242A"/>
<path fill-rule="evenodd" clip-rule="evenodd" d="M139.544 197.579C139.922 195.943 145.33 198.781 143.525 200.847C142.92 201.54 141.336 200.913 140.727 200.502C139.521 199.688 139.495 198.937 139.544 197.579Z" fill="#22242A"/>
<path fill-rule="evenodd" clip-rule="evenodd" d="M109.408 162.567C109.619 161.838 109.853 160.549 110.549 160.084C111.808 159.242 112.904 160.512 112.904 161.85C112.904 164.347 110.062 165.135 109.408 162.567Z" fill="#22242A"/>
<path fill-rule="evenodd" clip-rule="evenodd" d="M96.0024 191.76C97.4068 192.082 100.534 195.496 98.7202 196.889C96.9749 198.229 94.6537 192.78 96.0024 191.76Z" fill="#22242A"/>
<path fill-rule="evenodd" clip-rule="evenodd" d="M97.3394 165.921C99.1451 166.065 101.627 168.989 98.8204 169.453C96.6251 169.817 94.0719 166.637 97.3394 165.921Z" fill="#22242A"/>
<path fill-rule="evenodd" clip-rule="evenodd" d="M113.686 179.376C114.139 177.851 118.617 179.485 118.366 181.164C118.232 182.057 116.401 182.267 115.438 182.031C114.022 181.683 113.654 180.754 113.686 179.376Z" fill="#22242A"/>
<path fill-rule="evenodd" clip-rule="evenodd" d="M60.8997 94.1866C60.9322 92.2147 64.7212 91.411 64.9987 93.3982C65.2497 95.1935 60.8522 97.1038 60.8997 94.1866Z" fill="#22242A"/>
<path fill-rule="evenodd" clip-rule="evenodd" d="M112.434 199.694C112.707 198.703 112.825 197.509 114.064 197.379C115.482 197.229 115.44 198.316 115.273 199.443C114.82 202.509 113.087 202.662 112.434 199.694Z" fill="#22242A"/>
<path fill-rule="evenodd" clip-rule="evenodd" d="M52.5982 117.648C50.6229 118.093 47.0051 114.289 49.2163 113.473C50.7745 112.897 52.5982 116.5 52.5982 117.648Z" fill="#22242A"/>
<path fill-rule="evenodd" clip-rule="evenodd" d="M77.7926 147.199C76.7873 147.672 76.5558 147.959 75.7836 147.183C75.1111 146.506 75.1408 144.621 75.718 143.917C77.9286 141.222 77.8767 146.108 77.7926 147.199Z" fill="#22242A"/>
<path fill-rule="evenodd" clip-rule="evenodd" d="M85.9946 141.733C87.043 141.866 90.1583 144.821 88.5361 145.996C86.5483 147.434 85.4236 142.927 85.9946 141.733Z" fill="#22242A"/>
<path fill-rule="evenodd" clip-rule="evenodd" d="M108.678 142.511C107.916 145.446 106.014 143.471 106.122 141.25C106.295 137.693 108.266 140.791 108.678 142.511Z" fill="#22242A"/>
<path fill-rule="evenodd" clip-rule="evenodd" d="M120.244 189.644C121.534 190.177 123.284 195.106 121.442 195.371C119.374 195.667 120.063 190.67 120.244 189.644Z" fill="#22242A"/>
<path fill-rule="evenodd" clip-rule="evenodd" d="M104.143 186.875C105.618 186.377 106.159 189.489 105.301 190.068C103.415 191.339 103.812 187.609 104.143 186.875Z" fill="#22242A"/>
<path fill-rule="evenodd" clip-rule="evenodd" d="M90.1553 178.395C90.1366 178.808 90.1181 179.221 90.0988 179.632C90.1172 179.218 90.1359 178.807 90.1553 178.395Z" fill="#22242A"/>
<path fill-rule="evenodd" clip-rule="evenodd" d="M139.544 197.579C139.528 198.003 139.513 198.426 139.497 198.848C139.512 198.423 139.528 198.001 139.544 197.579Z" fill="#22242A"/>
<path fill-rule="evenodd" clip-rule="evenodd" d="M113.686 179.376C113.678 179.735 113.669 180.095 113.66 180.452C113.668 180.092 113.677 179.734 113.686 179.376Z" fill="#22242A"/>
<path fill-rule="evenodd" clip-rule="evenodd" d="M276.873 173.191C279.932 173.093 283.344 171.942 286.349 172.308C287.177 172.409 289.082 172.617 287.756 173.845C287.122 174.431 284.087 174.128 283.168 174.323C277.552 175.512 271.177 176.279 265.418 176.18C262.723 176.133 260.007 175.917 257.313 175.775C254.62 175.632 254.356 174.538 257.385 174.19C260.532 173.829 263.761 173.963 266.923 173.959C270.247 173.955 273.555 173.413 276.873 173.191Z" fill="#22242A"/>
<path fill-rule="evenodd" clip-rule="evenodd" d="M283.588 165.822C283.294 166.66 283.035 168.584 281.907 168.71C280.327 168.887 280.065 166.174 280.124 165.182C280.194 163.984 280.625 161.995 282.114 162.41C283.371 162.76 283.497 164.863 283.588 165.822Z" fill="#22242A"/>
<path fill-rule="evenodd" clip-rule="evenodd" d="M274.022 165.208C274.253 164.311 274.367 162.287 275.636 162.218C277.055 162.142 277.46 164.25 277.451 165.261C277.442 166.22 277.087 168.031 275.957 168.253C274.426 168.553 274.289 166.234 274.022 165.208Z" fill="#22242A"/>
<path fill-rule="evenodd" clip-rule="evenodd" d="M258.093 166.818C257.633 167.897 257.329 169.383 255.906 168.647C254.806 168.079 254.653 165.784 254.86 164.734C255.075 163.646 255.531 162.398 256.781 162.887C258.223 163.452 258.077 165.63 258.093 166.818Z" fill="#22242A"/>
<path fill-rule="evenodd" clip-rule="evenodd" d="M270.156 165.822C268.8 169.932 266.327 167.151 267.266 164.083C268.248 160.875 270.031 163.99 270.156 165.822Z" fill="#22242A"/>
<path fill-rule="evenodd" clip-rule="evenodd" d="M263.549 166.025C263.173 166.749 262.772 168.31 261.757 168.146C260.513 167.944 260.473 165.55 260.609 164.658C260.729 163.877 261.079 162.576 262.121 162.593C263.626 162.617 263.525 165.089 263.549 166.025Z" fill="#22242A"/>
<path fill-rule="evenodd" clip-rule="evenodd" d="M290.597 166.814C289.587 169.079 288.199 167.128 288.643 165.52C289.302 163.134 290.54 165.248 290.597 166.814Z" fill="#22242A"/>
<path fill-rule="evenodd" clip-rule="evenodd" d="M265.877 173.962C264.775 173.958 263.672 173.954 262.57 173.95C263.673 173.742 264.776 173.661 265.877 173.962Z" fill="#22242A"/>
<path fill-rule="evenodd" clip-rule="evenodd" d="M287.783 172.299C286.827 172.305 285.871 172.311 284.916 172.317C285.87 172.031 286.826 172.025 287.783 172.299Z" fill="#22242A"/>
<path fill-rule="evenodd" clip-rule="evenodd" d="M276.873 173.191C276.108 173.242 275.343 173.294 274.578 173.345C275.343 173.294 276.108 173.242 276.873 173.191Z" fill="#22242A"/>
<path fill-rule="evenodd" clip-rule="evenodd" d="M258.093 166.818C258.086 166.269 258.078 165.72 258.072 165.171C258.355 165.718 258.335 166.266 258.093 166.818Z" fill="#22242A"/>
<path fill-rule="evenodd" clip-rule="evenodd" d="M264.091 176.168C264.535 176.172 264.978 176.176 265.418 176.18C264.973 176.176 264.532 176.172 264.091 176.168Z" fill="#22242A"/>
<path fill-rule="evenodd" clip-rule="evenodd" d="M256.639 175.775C257.088 175.775 257.538 175.775 257.984 175.775C257.533 175.775 257.086 175.775 256.639 175.775Z" fill="#22242A"/>
<path fill-rule="evenodd" clip-rule="evenodd" d="M260.324 174.01C259.699 174.061 259.074 174.112 258.449 174.164C259.074 174.112 259.699 174.061 260.324 174.01Z" fill="#22242A"/>
<path fill-rule="evenodd" clip-rule="evenodd" d="M268.774 173.955C268.157 173.957 267.54 173.958 266.923 173.959C267.54 173.699 268.157 173.692 268.774 173.955Z" fill="#22242A"/>
<path fill-rule="evenodd" clip-rule="evenodd" d="M263.549 166.025C263.534 165.453 263.519 164.88 263.505 164.309C263.52 164.881 263.535 165.454 263.549 166.025Z" fill="#22242A"/>
<path fill-rule="evenodd" clip-rule="evenodd" d="M254.861 164.734C254.857 165.293 254.854 165.851 254.849 166.407C254.853 165.848 254.856 165.291 254.861 164.734Z" fill="#22242A"/>
<path fill-rule="evenodd" clip-rule="evenodd" d="M280.379 172.983C279.834 173.033 279.288 173.082 278.743 173.131C279.289 173.082 279.834 173.033 280.379 172.983Z" fill="#22242A"/>
<path fill-rule="evenodd" clip-rule="evenodd" d="M290.597 166.814C290.579 166.327 290.562 165.839 290.544 165.352C290.562 165.84 290.579 166.327 290.597 166.814Z" fill="#22242A"/>
<path fill-rule="evenodd" clip-rule="evenodd" d="M267.388 176.184C267.767 176.177 268.147 176.17 268.523 176.163C268.142 176.171 267.765 176.178 267.388 176.184Z" fill="#22242A"/>
<path fill-rule="evenodd" clip-rule="evenodd" d="M283.588 165.822C283.554 165.471 283.521 165.12 283.488 164.771C283.521 165.122 283.555 165.472 283.588 165.822Z" fill="#22242A"/>
<path fill-rule="evenodd" clip-rule="evenodd" d="M270.156 165.822C270.132 165.462 270.107 165.102 270.082 164.743C270.107 165.103 270.132 165.463 270.156 165.822Z" fill="#22242A"/>
<path fill-rule="evenodd" clip-rule="evenodd" d="M74.3322 60.0314C72.8388 59.6395 72.5588 57.5408 72.7988 56.2517C73.071 55.6305 73.3432 55.0095 73.6154 54.3883C73.5088 54.1586 73.4025 53.9289 73.2963 53.6992C73.4329 52.4198 73.0838 51.8639 74.5541 52.382C77.2854 53.3452 77.7219 59.9327 74.3322 60.0314Z" fill="#22242A"/>
<path fill-rule="evenodd" clip-rule="evenodd" d="M96.4389 55.9735C97.6692 55.8766 99.9039 57.3095 98.6792 58.6957C97.9205 59.5545 95.4202 59.1482 94.4002 59.3276C93.0473 59.5654 91.6364 59.8907 92.3683 57.8645C92.943 56.2732 94.9955 55.932 96.4389 55.9735Z" fill="#22242A"/>
<path fill-rule="evenodd" clip-rule="evenodd" d="M95.1443 65.5043C93.8946 64.5022 94.4525 59.9375 96.3543 60.7587C98.3109 61.604 96.1871 64.8456 95.1443 65.5043Z" fill="#22242A"/>
<path fill-rule="evenodd" clip-rule="evenodd" d="M72.7987 56.2517C72.7987 56.732 72.7984 57.2126 72.7975 57.6908C72.5368 57.2095 72.5449 56.7305 72.7987 56.2517Z" fill="#22242A"/>
<path fill-rule="evenodd" clip-rule="evenodd" d="M74.3322 60.0314C74.5868 60.0242 74.8418 60.0167 75.0934 60.0101C74.8375 60.0183 74.585 60.0248 74.3322 60.0314Z" fill="#22242A"/>
<path fill-rule="evenodd" clip-rule="evenodd" d="M228.639 191.49C228.522 193.566 226.293 192.031 226.451 190.642C226.738 188.121 228.163 190.612 228.639 191.49Z" fill="#22242A"/>
</svg>
