<svg width="320" height="240" viewBox="0 0 320 240" fill="none" xmlns="http://www.w3.org/2000/svg">
<path fill-rule="evenodd" clip-rule="evenodd" d="M206.875 91.25C204.489 95.9151 201.968 100.456 199.423 105.036C198.075 107.461 193.73 117.489 192.607 117.872C191.399 118.285 183.995 113.931 181.87 113.078C178.094 111.563 174.506 110.128 170.562 109.193C166.146 108.147 161.694 107.375 157.113 107.764C155.107 107.935 151.786 108.42 153.78 105.601C155.234 103.546 156.642 101.653 158.616 100.168C160.053 99.0871 162.16 97.1045 163.842 96.3824C165.607 95.6247 168.211 95.7926 170.108 95.8372C172.159 95.8858 181.934 98.9359 182.472 95.7568C183.469 96.664 184.05 96.3131 185.192 96.7562C186.48 97.2555 187.283 98.225 188.562 98.8104C189.391 99.1905 190.921 100.693 191.843 100.702C193.069 100.714 193.399 99.6985 194.279 98.949C196.252 97.2696 198.878 96.1644 201.018 94.7054C202.903 93.4201 204.697 92.0805 206.875 91.25ZM185.399 54.375C185.231 56.5047 185.806 58.4835 185.792 60.6748C185.786 61.6311 185.743 62.5869 186.033 63.5082C186.294 64.3341 186.112 65.8177 186.25 66.6825C183.811 65.9399 179.279 64.8385 176.788 65.8399C174.407 66.7973 174.107 71.2245 174.023 73.3777C173.966 74.8453 174.618 77.1061 174.124 78.5112C173.894 79.1665 173.892 79.3781 173.906 79.4371L173.908 79.4434C173.861 79.4192 173.67 79.4196 172.995 79.9061C172.327 80.388 171.529 80.6538 170.868 81.186C169.667 82.1552 169.461 83.2535 168.868 84.6582C168.293 86.0224 166.758 87.235 165.046 87.1855C166.422 84.6907 168.334 82.3605 167.237 79.4302C166.409 77.2184 167.86 74.6229 169.001 72.5219C169.379 71.826 173.567 66.4951 171.711 66.1192C170.506 65.875 167.74 71.5339 167.211 72.5219C165.735 71.5241 165.072 70.2942 166.208 68.7913C167.08 67.6371 168.152 66.6503 169.001 65.4553C170.38 63.5157 171.723 61.2007 173.361 59.4778C176.237 56.4528 181.258 54.3935 185.399 54.375ZM173.908 79.4434C173.924 79.4545 173.917 79.4651 173.91 79.4488L173.908 79.4434ZM224.05 51.0698C225.888 52.8304 228.212 54.2908 229.988 56.1384C231.543 57.756 233.637 60.4768 234.375 62.6377C230.586 63.3681 224.289 65.6052 222.78 69.582C216.887 64.1719 214.607 74.0627 213.438 78.1987C209.988 76.7062 210.676 71.7373 210.722 68.8362C210.757 66.535 212.159 63.8111 208.817 63.6225C206.32 63.4822 203.895 64.4991 201.643 65.4514C198.833 66.6396 195.885 68.4173 193.615 70.459L191.25 68.6179C195.13 66.4397 197.152 62.2751 199.423 58.4617C200.147 57.246 201.115 55.8941 201.643 54.58C202.009 53.6712 202.266 51.837 202.666 51.029C203.297 49.7588 209.452 49.4091 211.083 49.0817C215.387 48.2177 220.532 47.6998 224.05 51.0698Z" fill="#3352CC"/>
<path fill-rule="evenodd" clip-rule="evenodd" d="M223.069 79.2982C224.659 79.2169 226.242 79.572 227.832 79.4172C226.452 78.2147 225.071 77.0126 223.691 75.8104C223.081 76.8814 223.036 78.0996 223.069 79.2982ZM185.345 54.58C181.229 54.5981 176.209 56.6653 173.35 59.6844C171.835 61.2845 170.584 63.4331 169.302 65.2308C168.443 66.4369 167.604 67.6009 166.561 68.6608C165.04 70.2055 165.476 70.5587 167.189 71.722C167.731 70.7056 170.607 65.272 171.812 65.5164C173.644 65.888 170.107 71.6277 169.72 72.3427C168.576 74.4582 166.729 77.4133 167.559 79.6443C168.654 82.5896 167.066 84.2682 165.687 86.7778C167.135 86.8198 167.278 86.2549 167.777 85.0198C168.418 83.4322 169.118 82.106 170.473 81.0083C171.523 80.1586 173.24 79.8007 173.733 78.7745C174.343 77.506 173.96 75.0011 174.01 73.59C174.085 71.4458 174.09 66.3767 176.453 65.4241C178.929 64.4258 183.38 65.3667 185.8 66.1061C185.498 64.2164 184.545 62.9821 184.558 60.8822C184.572 58.6842 185.177 56.7231 185.345 54.58ZM153.727 89.6476C155.88 88.966 157.921 88.2479 160.136 87.7835C162.454 87.2972 162.609 86.7409 163.916 84.753C164.906 83.2464 166.108 82.0718 165.827 80.2265C165.647 79.0428 164.999 78.4661 165.194 77.1351C165.315 76.3101 165.7 75.4093 165.978 74.6248C166.319 73.6623 167.026 72.5705 165.382 72.523C164.475 72.4967 164.43 72.9756 163.816 73.7797C162.682 75.2651 161.377 76.6138 160.171 78.0383C158.075 80.5117 155.853 83.1439 153.514 85.4331C150.939 87.9521 148.717 90.9904 147.052 94.2154C146.745 94.811 144.876 98.3188 145.673 99.0067C146.405 99.6384 150.478 98.1652 151.221 97.9927C154.426 97.2486 158.065 96.9831 161.093 95.6316C162.636 94.943 166.041 94.1211 167.26 93.0557C168.393 92.0653 168.342 89.6661 167.684 88.2699C165.844 89.4147 152.541 93.7337 153.727 89.6476ZM193.778 69.9612C195.926 68.0209 198.465 66.4644 201.118 65.3109C203.49 64.2793 206.437 63.1294 209.077 63.3085C212.365 63.5313 210.991 66.1803 210.979 68.4361C210.964 71.4293 209.652 75.7413 213.226 77.2942C214.393 73.1496 216.852 63.349 222.743 68.7799C224.249 64.7947 229.618 63.446 233.4 62.7141C232.714 60.7007 230.632 58.8783 229.19 57.367C227.385 55.4765 225.96 53.2608 224.151 51.4061C220.579 47.7435 214.107 48.9197 209.585 49.8327C208.075 50.1372 203.698 50.5199 202.967 51.6285C202.508 52.3239 202.765 54.0226 202.425 54.8727C201.956 56.0442 201.156 57.1301 200.514 58.212C198.171 62.1598 195.788 66.1332 191.779 68.3937L193.778 69.9612ZM206.888 91.2293C204.767 92.0433 203.206 93.4041 201.325 94.5501C199.044 95.9396 196.369 97.2412 194.322 98.9576C193.573 99.5854 193.152 100.67 192.118 100.74C191.219 100.801 189.848 99.7566 189.051 99.3913C187.714 98.7772 186.436 97.847 185.092 97.2997C183.987 96.8499 183.498 96.9418 182.542 96.0673C182.006 99.2581 172.253 96.2755 170.207 96.2268C168.315 96.182 165.718 96.4063 163.956 97.1669C162.278 97.8917 160.965 99.4871 159.529 100.574C157.559 102.065 155.68 103.572 154.23 105.635C152.24 108.464 155.242 107.664 157.243 107.493C161.812 107.102 166.256 108.19 170.661 109.241C174.597 110.179 178.485 111.305 182.254 112.827C184.373 113.683 186.604 114.47 188.597 115.582C189.648 116.169 191.353 117.606 192.559 117.192C193.665 116.812 194.767 113.642 195.437 112.376C196.739 109.918 198.109 107.502 199.453 105.068C201.992 100.471 204.508 95.9121 206.888 91.2293ZM180.787 152.074C182.094 151.323 184.225 151.525 185.67 151.211C187.304 150.855 188.946 150.276 190.504 149.672C192.081 149.061 193.571 148.436 195.012 147.671C195.671 147.321 196.55 146.976 197.159 146.491C197.65 146.1 197.828 145.373 198.281 145.018C199.462 144.093 199.809 144.674 199.967 142.887C200.139 140.947 199.05 139.848 197.695 138.396C196.482 137.097 194.906 135.973 193.382 135.059C192.707 134.655 191.987 134.2 191.299 133.814C190.258 133.23 188.862 132.258 188.316 133.512C189.454 133.803 189.705 135.256 188.678 135.778C188.114 136.065 187.26 135.644 186.624 135.949C185.642 136.419 184.698 137.733 183.858 138.44C181.1 140.762 178.462 141.632 174.852 141.819C167.308 142.208 159.409 141.348 152.01 140.23C150.106 139.942 148.205 140.254 146.283 140.185C144.413 140.118 142.464 139.709 140.626 139.393C137.085 138.785 133.353 138.285 129.867 137.39C125.652 136.307 121.422 134.907 117.464 133.094C113.668 131.355 109.377 128.48 105.113 128.259C106.933 130.04 109.659 130.727 111.848 131.9C113.637 132.859 116.434 133.474 117.565 135.054C118.3 136.082 118.669 137.971 119.225 139.176C119.84 140.51 120.407 141.866 120.976 143.22C121.547 144.582 122.143 145.946 122.607 147.349C122.894 148.219 123.018 150.024 123.697 150.62C124.78 151.57 128.403 151.991 129.863 152.307C132.587 152.898 135.695 152.819 138.474 152.86C139.622 152.877 140.779 153.034 141.877 153.055C143.418 153.084 143.271 152.817 143.249 151.48C143.236 150.676 143.252 149.215 144.327 149.877C145.059 150.328 144.555 152.325 144.419 153.034C150.553 153.645 156.953 153.952 163.057 153.748C169.061 153.547 174.857 152.773 180.787 152.074ZM208.487 137.994C209.57 130.222 210.889 122.32 212.365 114.649C213.857 106.897 215.65 99.2157 217.668 91.4929C216.335 91.1739 215.003 90.8557 213.67 90.5371C213.62 92.1643 213.07 93.5778 212.835 95.1975C212.512 97.4333 211.893 99.6042 211.522 101.832C210.818 106.068 209.514 110.213 208.365 114.343C207.193 118.554 206.802 122.893 205.726 127.125C204.839 130.612 204.386 134.452 203.891 138.037C202.689 146.733 200.977 155.445 199.674 164.146C198.453 172.302 198.33 180.625 198.4 188.858C198.443 193.885 199.21 198.897 199.17 203.93C199.16 205.174 199.265 206.415 199.33 207.657C199.375 208.533 198.904 210.963 199.304 211.697C199.557 212.162 200.642 212.59 201.027 213.236C201.635 214.257 201.763 215.477 202.739 216.25C203.531 213.057 203.157 208.844 202.984 205.585C202.817 202.446 203.142 199.201 203.206 196.014C203.331 189.761 203.662 183.599 203.983 177.343C204.334 170.482 205.333 163.454 206.31 156.645C207.197 150.453 207.79 144.152 208.487 137.994ZM179.519 40.5283C179.089 40.4882 178.66 40.4486 178.231 40.4085C178.295 41.3129 178.104 42.7774 178.742 43.2492C179.225 43.6067 180.203 43.4893 180.788 43.6036C182.708 43.9788 184.932 44.2927 186.838 43.6091C187.578 43.3435 187.102 42.9275 188.122 43.1004C189.35 43.309 188.902 43.5034 189.256 44.2695C189.529 44.8607 189.67 45.8669 189.98 46.5767C190.395 47.5267 191.236 49.2266 190.877 50.3234C190.527 51.3896 189.223 51.7118 188.669 52.9194C188.257 53.8171 188.354 55.1222 188.14 56.111C187.854 57.4298 187.493 58.7435 187.334 60.0867C187.133 61.7787 187.201 63.7642 189.298 64.0267C191.244 64.2706 192.635 63.6452 193.94 62.2282C196.432 59.523 199.277 55.704 200.741 52.3011C200.912 51.9035 201.333 51.24 201.275 50.8145C201.159 49.9726 201.108 50.8247 200.841 50.2401C200.587 49.6811 200.187 49.1739 199.952 48.5536C199.106 46.3249 198.507 43.989 198.168 41.6299C198.015 40.5613 197.963 39.5057 197.99 38.4265C197.998 38.058 198.219 36.9517 198.087 36.6995C197.953 36.4438 197.252 36.3259 197.033 36.0721C196.628 35.6019 195.932 34.274 195.483 33.922C194.931 33.4895 193.696 33.8321 193.472 32.9717C193.113 31.5947 201.604 29.3519 197.637 27.5145C194.675 26.1427 190.133 33.0774 189.097 27.6206C188.917 26.6754 189.259 25.3923 188.845 24.5261C188.386 23.5687 187.139 23.2108 186.268 22.7449C185.156 22.1509 184.033 21.5404 182.952 20.8898C182.211 20.4439 181.143 19.2598 180.354 19.1514C180.665 20.7586 180.07 22.3516 180.06 23.9556C181.769 23.4932 182.944 23.4834 184.631 24.3057C185.434 24.697 188.46 26.9178 186.927 27.986C185.685 27.2517 184.356 26.6149 182.972 26.1831C182.425 26.0126 181.743 25.7809 181.163 25.7691C179.814 25.742 180.004 25.883 179.498 26.8997C179.01 27.8791 179.115 30.4335 178.043 31.0589C176.935 31.7055 177.79 30.8004 176.844 31.0094C176.304 31.1288 175.716 31.5299 175.222 31.7566C175.899 32.4912 177.265 33.1619 177.714 33.9778C178.369 35.1674 178.141 37.6279 178.244 38.9294C179.101 38.6226 180.004 38.61 180.872 38.3821C181.689 38.1676 182.822 37.2393 182.907 38.6041C183.002 40.1249 180.598 40.5283 179.519 40.5283ZM190.675 80.5675C190.742 79.2534 190.815 77.9397 190.961 76.6311C191.06 75.7523 191.894 73.2034 191.422 72.4315C190.91 71.5919 189.191 71.5385 188.363 71.337C186.777 70.9504 185.257 70.6337 183.645 70.3784C182.162 70.1439 180.766 70.0943 179.272 70.0264C177.645 69.9529 177.242 69.5212 176.882 71.3138C176.6 72.7234 176.22 74.1915 176.168 75.6348C176.118 76.9894 176.527 78.1652 175.185 79.0782C178.133 79.0782 181.972 76.4535 184.662 78.8005C188.51 82.1566 181.814 83.1235 180.048 83.8644C181.516 84.5778 183.695 85.138 184.386 86.7676C185.161 88.594 184.036 89.3707 182.314 89.5168C182.476 90.2208 183.096 90.6781 183.281 91.5247C183.551 92.7657 182.674 92.3548 183.793 93.3149C185.267 94.5788 188.301 95.4238 190.109 96.2288C190.532 96.4181 190.96 96.5957 191.393 96.7619C192.07 97.3645 192.57 97.2498 192.893 96.4173C193.821 95.8304 194.646 94.521 195.468 93.7593C197.298 92.0645 199.318 90.5771 201.492 89.3534C200.591 88.9802 199.513 89.8236 198.648 89.4131C197.949 89.0811 198.212 88.4773 197.793 88.0251C197.961 87.4355 197.784 87.2198 197.262 87.3781C197.001 87.406 196.758 87.3616 196.533 87.2457C196.096 86.7036 195.899 86.526 195.87 85.6888C195.839 84.8006 196.354 84.4871 196.551 83.776C197.193 83.3387 197.178 82.909 196.508 82.4878C196.232 82.0368 196.081 81.5477 196.056 81.0201C195.929 79.0609 197.717 78.2713 199.081 77.2349C196.639 76.9666 196.732 74.1027 198.421 72.8506C200.173 71.5526 203.881 72.0842 205.998 72.3769C206.439 72.4374 207.629 73.0054 208.074 72.6432C208.347 72.4212 208.154 70.5446 208.167 70.2134C208.195 69.4615 208.378 68.565 208.258 67.817C208.007 66.2506 208.539 67.0395 207.411 66.9959C204.728 66.8918 201.311 69.2344 198.95 70.3387C196.307 71.575 194.609 71.7652 194.581 74.8302C194.555 77.7327 193.741 80.6245 193.386 83.4806C193.231 84.7279 193.12 91.2081 190.837 88.8167C189.952 87.8892 190.519 86.4627 190.585 85.3187C190.674 83.7446 190.621 82.146 190.675 80.5675ZM43.0523 177.722C44.3586 177.954 46.4864 177.204 47.9114 177.125C50.4035 176.988 52.9698 176.751 55.4112 176.232C57.3212 175.826 59.4977 175.469 60.5278 173.62C61.4486 171.968 61.774 169.899 62.27 168.096C62.5333 167.138 63.2128 165.75 63.2128 164.76C63.2128 163.472 63.0391 163.726 61.6962 163.021C59.9964 162.129 58.3427 160.886 56.5093 160.38C55.9547 160.272 55.3998 160.166 54.8445 160.062C54.1261 159.645 53.7205 159.85 53.6266 160.676C52.9254 161.415 52.5143 162.778 51.926 163.643C50.5847 165.614 48.9918 166.958 46.9108 168.095C43.1662 170.14 39.6771 171.718 35.6665 173.056C33.4562 173.793 31.418 174.827 29.2577 175.639C27.5269 176.29 25.1382 176.488 23.8086 177.937C22.3085 179.571 24.6143 180.166 25.8959 181.271C26.946 182.176 26.9664 182.384 28.4029 181.945C29.473 181.617 30.4218 180.991 31.4495 180.566C34.9697 179.112 39.2303 178.145 43.0523 177.722ZM123.503 203.65C122.191 203.366 120.879 203.083 119.567 202.8C120.857 205.208 123.571 208.732 121.623 211.52C120.895 212.562 119.685 212.859 118.603 213.387C117.294 214.027 116.085 214.846 114.848 215.608C109.745 218.75 104.558 221.936 99.1814 224.633C100.865 225.176 103.453 225.552 105.187 225.078C107.205 224.527 109.075 223.261 111.147 222.708C114.866 221.715 118.779 220.87 122.557 220.361C125.645 219.945 133.374 220.885 132.999 216.241C132.642 211.832 130.009 207.626 129.225 203.267C127.302 203.694 125.468 203.619 123.503 203.65ZM201.703 133.082C203.198 125.742 204.091 118.278 205.855 110.992C206.735 107.356 207.355 103.671 208.215 100.036C208.615 98.3439 208.917 96.6358 209.307 94.9473C209.701 93.238 210.55 91.6602 210.744 89.8932C209.315 90.2467 208.985 93.5196 208.552 94.7508C207.757 97.0098 206.89 99.1803 205.869 101.343C204.246 104.78 202.524 108.097 200.693 111.43C198.763 114.945 196.723 118.325 194.311 121.535C193.519 122.59 192.444 123.417 191.933 124.574C191.13 126.394 190.792 128.563 190.025 130.457C190.565 130.731 191.961 130.8 192.623 130.931C193.856 131.174 194.719 131.39 195.903 131.976C197.988 133.008 199.74 134.232 201.134 136.09C201.484 135.136 201.575 134.091 201.703 133.082ZM143.579 189.079C143.554 182.011 143.454 174.882 143.57 167.866C143.602 165.918 143.76 163.816 144.043 161.883C144.22 160.668 145.264 158.085 144.578 157.502C143.991 157.004 140.896 157.332 140.136 157.314C138.663 157.28 137.194 157.214 135.718 157.104C135.718 159.723 136.742 162.698 137.217 165.289C137.66 167.706 138.025 170.137 138.391 172.565C139.183 177.824 139.408 183.155 140.268 188.427C141.047 193.208 142.074 197.969 142.641 202.748C142.952 205.372 143.581 207.848 144.07 210.47C144.325 211.838 145.256 217.47 146.429 218.024C146.677 216.003 145.664 213.563 145.483 211.521C145.296 209.411 145.151 207.288 144.809 205.168C144.407 202.679 144.204 200.128 144.05 197.608C143.956 196.066 143.928 194.529 143.794 192.988C143.698 191.87 143.275 190.175 143.579 189.079ZM180.415 94.5599C180.463 93.7903 178.471 93.8213 178.1 92.9366C177.348 91.1401 179.063 91.4634 180.118 91.2776C179.742 90.2786 172.699 90.6423 174.34 87.9454C175.478 86.0742 179.794 88.9381 180.948 87.1601C181.706 85.9921 179.643 85.8314 178.825 85.7143C177.593 85.538 174.692 86.108 174.788 84.5102C174.908 82.5027 180.547 81.1171 182.129 80.5275C181.954 79.1529 175.167 81.1069 174.185 81.664C171.961 82.9255 170.258 85.1883 169.932 87.7034C169.552 90.6298 171.036 92.9343 173.959 93.6524C175.177 93.9518 176.078 93.9852 177.206 94.4354C177.948 94.7312 180.349 95.4694 180.858 94.7226C180.71 94.6684 180.562 94.6141 180.415 94.5599ZM220.259 76.3585C220.371 75.1088 221.423 72.7564 220.211 71.9353C218.515 70.7862 217.812 72.6797 217.428 73.8171C216.958 75.2058 214.982 78.6052 216.71 79.4707C217.111 79.6718 219.016 79.4377 219.352 79.3049C220.288 79.5489 220.59 79.1984 220.259 78.2528V76.3585ZM178.865 177.276C178.759 173.86 180.288 169.754 181.155 166.409C182.137 162.619 182.655 158.753 183.695 155.005C182.538 155.144 181.369 155.258 180.225 155.49C178.665 155.807 178.637 155.757 178.749 157.288C178.916 159.587 178.697 161.841 178.578 164.14C178.34 168.741 178.92 173.419 178.534 177.991C178.878 178.078 178.988 177.84 178.865 177.276ZM222.077 87.7631C225.826 88.3371 229.42 89.5258 232.832 91.1232C234.713 92.0036 236.785 92.9496 238.886 93.3012C241.222 93.6921 243.698 93.5086 246.083 93.6595C246.923 93.7125 249.133 94.1211 249.953 93.6265C250.765 93.1366 250.701 92.3065 250.74 91.3169C250.838 88.7716 249.686 86.2793 248.65 83.9956C247.761 82.0364 247.089 80.5404 245.71 78.8551C243.939 76.6904 242.397 74.3545 240.739 72.0952C239.488 70.3921 238.225 68.7135 236.95 67.0124C236.038 65.7945 236.082 65.3754 234.707 65.5117C233.354 65.646 231.992 66.4459 230.717 66.8698C228.825 67.4991 226.534 67.8445 224.809 68.8506C223.694 69.5011 223.644 69.621 223.657 70.7563C223.669 71.8139 224.01 73.1036 224.642 73.931C225.956 75.6486 228.135 76.5576 230.004 77.4145C231.086 77.9099 232.021 78.6127 232.983 79.2962C234.021 80.0332 236.113 80.4674 236.907 81.3073C239.218 83.7536 235.011 83.27 233.836 83.1961C231.299 83.0366 228.777 83.061 226.221 83.059C223.432 83.0571 220.665 82.9274 217.915 83.0182C216.305 83.0712 214.457 82.2545 213.414 80.8928C212.909 80.2332 212.712 79.6097 212.051 78.9254C211.185 78.0293 210.432 77.0852 209.379 76.3919C207.656 75.2573 204.524 74.6153 202.473 75.0388C203.207 75.1414 206.662 76.3176 205.141 77.7959C204.956 77.9759 202.734 78.0937 202.251 78.3157C201.379 78.716 200.28 79.2978 199.769 80.1432C201.257 79.8938 206.779 79.605 203.962 82.4615C203.271 83.1627 201.286 83.8624 202.975 84.6081C203.363 84.7794 204.139 84.537 204.639 84.6914C205.381 84.9212 205.988 85.536 206.684 85.8636C208.657 86.7943 211.376 87.3683 213.435 87.1644C216.282 86.8819 219.249 87.3903 222.077 87.7631ZM146.577 173.833C146.674 177.937 146.526 182.065 146.613 186.187C146.707 190.589 147.271 194.903 147.541 199.261C147.782 203.167 148.31 206.999 148.738 210.886C148.985 213.125 149.269 215.266 149.648 217.488C150.002 219.567 150.063 221.4 147.577 221.959C142.825 223.028 142.086 216.191 141.168 213.31C139.796 209.011 138.917 204.497 138.238 200.04C136.973 191.739 135.291 183.554 134.635 175.183C134.231 170.029 133.645 164.927 133.313 159.777C133.247 158.767 133.505 157.212 132.619 156.763C132.085 156.493 130.617 156.491 129.944 156.295C128.07 155.75 126.341 154.947 124.512 154.114C125.81 160.901 126.238 167.655 127.212 174.502C127.729 178.136 128.718 181.9 129.574 185.476C130.462 189.182 130.659 193.172 131.684 196.797C132.135 198.394 132.517 199.045 131.862 200.685C131.059 202.698 131.592 203.18 132.599 205.157C134.451 208.794 135.866 213.086 135.552 217.186C135.296 220.535 132.765 222.288 129.631 223.192C125.711 224.321 121.605 224.188 117.661 225.471C114.225 226.589 110.733 227.414 107.396 228.89C106.05 229.485 104.772 230.191 103.278 230.3C101.229 230.449 99.8467 229.26 97.9111 229.012C96.7015 228.857 94.9302 229.434 94.2334 228.166C93.6808 227.161 94.3061 224.967 94.9997 224.158C96.9479 221.884 100.849 219.902 103.477 218.56C106.505 217.013 109.435 215.077 112.24 213.081C113.941 211.871 115.675 210.71 117.374 209.497C118.498 208.695 118.926 208.69 118.811 207.415C118.719 206.398 118.261 205.412 118.181 204.371C118.12 203.573 118.399 202.486 118.022 201.966C117.745 201.582 116.704 201.311 116.295 201.021C114.799 199.96 114.459 198.648 113.78 197.034C112.236 193.37 110.463 189.808 108.973 186.114C105.773 178.183 103.82 169.843 101.168 161.749C98.4574 153.481 96.0341 144.801 94.5415 136.222C92.5442 136.83 90.6594 139.52 89.0688 140.85C86.9199 142.649 84.7182 144.388 82.6109 146.236C79.1568 149.264 75.6594 152.21 72.805 155.837C71.4298 157.584 70.3039 159.465 69.0588 161.3C68.3396 162.36 67.6691 163.561 66.8902 164.569C66.7652 164.731 66.7617 165.064 66.6269 165.202C66.3302 165.504 65.7638 165.101 65.5736 165.301C64.4001 166.528 64.4154 170.012 64.0495 171.632C63.5457 173.864 62.9798 176.43 61.2372 177.968C58.5455 180.343 53.5814 180.712 50.1748 180.835C45.8029 180.993 41.562 182.211 37.4142 183.52C35.4794 184.13 33.5953 184.844 31.6535 185.436C30.5365 185.778 29.2624 186.458 28.0696 186.327C26.6312 186.169 25.4954 184.959 24.4417 184.059C22.7561 182.62 21.1955 181.202 21.2499 178.841C21.3107 176.341 22.6646 174.455 24.7974 173.213C28.9209 170.813 33.5328 169.275 37.9774 167.616C39.6807 166.98 41.1387 166.276 42.7673 165.42C45.0684 164.21 47.7173 163.223 49.759 161.625C50.361 161.154 52.5733 159.71 52.7619 158.965C52.7867 158.868 52.2337 157.731 52.2314 157.55C52.2259 157.086 52.5006 156.584 52.6696 156.187C53.7331 153.686 55.5169 151.279 56.8807 148.922C59.3782 144.603 61.8852 140.262 64.7809 136.201C70.555 128.104 77.0412 120.175 84.0419 113.107C87.4548 109.661 90.4039 105.753 93.8647 102.355C95.2359 101.009 96.6834 99.9126 98.3729 99.0389C100.256 98.065 102.37 97.8741 104.529 97.5767C109.76 96.8566 114.129 98.404 119.04 99.7507C123.683 101.024 128.332 102.097 133.001 103.423C138.128 104.879 143.203 106.276 148.314 107.862C151.046 108.71 153.855 109.231 156.599 110.044C157.92 110.436 162.916 112.889 164.017 112.083C160.547 110.455 156.992 108.97 153.279 107.987C152.186 107.698 151.487 108.018 151.528 106.763C151.55 106.078 152.32 105.154 152.597 104.59C153.26 103.24 154.011 101.922 154.66 100.568C152.307 101.237 145.98 103.55 144.206 101.158C142.35 98.6555 143.9 93.7483 145.063 91.2976C148.1 84.9003 153.265 79.5618 158.297 74.7395C159.386 73.6969 161.733 72.3352 162.313 71.0074C162.489 70.6035 162.105 70.0103 162.503 69.4858C162.74 69.1739 163.691 68.9606 164.071 68.6243C165.454 67.3994 166.558 64.8218 167.515 63.2158C168.516 61.534 169.418 59.7127 170.677 58.2037C172.735 55.7362 174.86 53.1206 178.193 52.5435C179.827 52.2606 181.564 52.4115 183.13 51.8469C185.025 51.1641 186.825 50.0885 188.739 49.3814C188.264 48.4055 187.879 46.8537 186.958 46.7472C186.072 46.6443 184.771 47.4065 183.756 47.401C182.274 47.3927 181.009 47.1558 179.579 46.8734C177.996 46.5602 177.475 46.6172 176.898 44.9C176.292 43.1011 176.445 41.0119 176.45 39.1435C176.452 38.2305 176.633 37.0971 176.556 36.201C176.439 34.8507 176.176 34.7989 175.118 33.9401C173.796 32.8672 172.165 31.4474 173.785 29.5833C174.661 28.576 176.459 29.3594 177.235 28.2771C178.024 27.1747 177.986 24.4055 178.227 23.1106C175.792 24.3073 176.685 19.8338 176.685 18.7574C176.684 17.191 175.634 14.3742 177.146 13.0711C177.848 12.4661 178.369 12.9666 179.172 12.619C180.088 12.2222 180.665 11.1815 181.64 10.778C183.577 9.97582 185.555 10.9419 187.544 10.7824C189.826 10.5997 192.067 10.2469 194.361 10.613C195.448 10.7859 195.905 11.1988 196.825 11.6616C197.709 12.1067 198.606 12.2285 199.567 12.5149C200.422 12.7698 201.171 12.8987 201.748 13.6435C202.205 14.2328 202.019 15.224 202.48 15.732C202.935 16.2325 203.834 16.1598 204.376 16.7542C204.897 17.3246 205.208 18.2675 205.478 18.9774C205.844 19.9336 205.887 20.2926 206.53 21.0579C207.091 21.7258 207.898 22.2628 208.367 23.0246C209.469 24.8203 209.498 27.4171 209.146 29.4372C209.026 30.1251 208.029 31.9031 208.185 32.4885C208.334 33.0456 209.269 32.899 209.692 33.2514C210.058 33.5559 210.38 34.9124 210.668 34.9953C211.291 35.1741 212.06 33.9432 212.532 33.7586C213.353 33.4376 213.697 33.1084 214.151 34.318C214.488 35.2157 214.019 36.434 213.772 37.2908C213.457 38.3814 213.11 39.6947 212.277 40.5193C211.297 41.4889 210.513 40.9589 209.432 41.481C207.813 42.2636 208.291 44.7103 206.298 45.4096C204.399 46.0759 202.306 43.9796 200.87 43.0159C201.167 45.3554 202.288 47.6096 201.75 50.0072C206.118 48.2959 210.438 45.8672 215.198 45.3322C217.625 45.0591 220.077 44.7358 222.368 45.7435C225.05 46.9229 226.693 49.5244 228.509 51.6859C231.92 55.7484 235.421 59.697 238.695 63.8904C241.699 67.7368 244.231 72.1938 247.537 75.7955C250.889 79.4479 253.419 85.3737 253.052 90.4314C253.019 90.8879 252.665 91.925 252.72 92.4173C252.764 92.7944 253.106 93.2725 253.101 93.5766C253.082 94.6 252.744 95.1893 251.768 95.757C250.077 96.7419 247.557 97.2404 245.646 97.4847C243.107 97.8096 239.997 97.8446 237.457 97.4977C234.836 97.1394 232.533 95.6729 230.124 94.7866C228.01 94.0087 225.888 93.5232 223.667 93.027C222.442 92.7532 221.086 91.9953 220.329 92.7288C219.633 93.403 219.489 96.8617 219.327 97.7813C217.57 107.75 215.482 117.38 213.632 127.298C211.537 138.539 210.103 149.776 208.646 161.113C207.321 171.418 206.888 181.839 206.591 192.135C206.45 197.046 206.429 201.905 206.459 206.82C206.476 209.572 207.852 218.76 203.772 219.112C201.374 219.319 199.456 215.881 198.813 214.007C197.848 211.19 197.345 208.157 197.191 205.198C196.88 199.207 196.472 193.213 196.23 187.22C195.968 180.728 196.301 174.115 196.835 167.644C197.372 161.13 198.726 154.711 199.141 148.186C197.895 149.964 197.497 150.298 195.422 151.072C193.252 151.882 191.164 152.841 188.974 153.596C188.228 153.853 187.066 154.014 186.455 154.435C185.328 155.211 186.068 154.33 185.708 155.841C185.324 157.456 185.251 159.394 185.149 161.052C184.669 168.837 182.513 176.566 181.518 184.309C181.278 186.179 181.621 194.115 178.403 191.614C175.925 189.688 175.974 183.637 175.622 180.803C175.153 177.025 175.414 173.141 175.488 169.341C175.573 165.012 175.645 160.472 176.678 156.246C174.83 155.93 172.26 156.791 170.4 156.936C168.789 157.062 167.184 157.141 165.583 157.229C161.764 157.439 157.83 157.606 153.946 157.531C153.239 157.518 148.62 156.871 148.03 157.392C147.838 157.562 147.779 159.89 147.743 160.175C147.607 161.245 147.423 162.314 147.286 163.378C146.847 166.78 146.451 170.433 146.577 173.833Z" fill="#22242A"/>
<path fill-rule="evenodd" clip-rule="evenodd" d="M215.171 206.162C218.085 207.301 221.179 207.715 224.118 208.752C226.746 209.68 229.187 210.927 231.774 211.87C231.926 210.67 232.006 208.637 231.563 207.506C230.935 205.904 229.284 205.865 227.657 205.294C223.699 203.905 219.536 203.613 215.607 201.99C216.28 203.285 215.979 205 215.171 206.162ZM265.486 201.973C259.191 202.158 253.175 203.623 246.971 204.529C243.952 204.969 240.93 205.362 237.908 205.774C236.746 205.932 234.626 205.746 233.781 206.752C233.08 207.586 233.848 210.432 233.537 211.655C234.809 211.749 237.068 210.56 238.449 210.363C240.6 210.058 242.722 209.629 244.895 209.493C248.336 209.276 251.717 209.092 255.153 208.709C258.646 208.319 262.026 207.595 265.548 207.331C267.259 207.202 267.948 207.523 268.049 205.716C268.088 205.01 268.185 203.827 267.987 203.13C268.304 202.274 268.023 201.858 267.144 201.882C266.587 201.819 266.034 201.85 265.486 201.973ZM253.311 196.206C255.013 196.046 256.723 195.817 258.429 195.721C258.775 195.701 260.531 195.807 260.818 195.485C261.223 195.03 260.771 193.365 260.697 192.85C260.444 191.099 260.164 190.08 258.253 190.076C256.641 190.072 254.971 190.413 253.365 190.571C246.073 191.285 238.819 191.587 231.607 192.944C232.047 194.813 232.545 196.742 232.02 198.654C235.479 198.832 239.277 198.166 242.658 197.483C246.113 196.786 249.78 196.439 253.311 196.206ZM241.77 178.606C239.165 178.618 236.412 179.765 233.841 179.51C233.803 179.988 234.625 179.591 234.853 180.038C235.338 180.04 235.507 180.198 235.359 180.514C235.368 180.73 235.257 180.856 235.028 180.893C234.914 180.903 234.801 180.913 234.688 180.923C234.191 180.939 234.109 181.274 234.444 181.929C234.3 182.741 234.516 183.772 234.547 184.587C239.167 183.958 243.655 183.304 248.307 183.024C250.503 182.891 252.698 182.892 254.892 182.711C257.305 182.512 259.94 182.939 262.299 182.487C263.561 182.245 263.429 182.262 263.337 180.622C263.281 179.625 263.302 178.442 262.49 177.715C261.135 176.501 258.049 177.203 256.429 177.245C251.549 177.374 246.585 177.828 241.77 178.606ZM244.437 202.032C251.416 201.398 258.342 200.01 265.361 200.01C264.865 199.514 263.784 199.386 263.166 199.115C262.462 198.807 261.797 198.151 261.109 197.881C259.728 197.34 258.323 198.092 256.904 198.416C253.483 199.2 249.972 199.226 246.545 199.995C243.002 200.789 239.413 201.522 235.805 201.925C234.087 202.118 232.243 202.507 230.545 202.054C230.408 201.955 230.269 201.856 230.131 201.758C229.983 201.126 229.571 200.958 228.896 201.252C228.038 201.089 226.945 201.3 226.081 201.321C226.046 201.666 229.237 202.748 229.846 203.016C231.312 203.662 232.306 204.135 233.872 203.858C237.398 203.235 240.866 202.492 244.437 202.032ZM219.887 181.627C220.159 182.691 221.305 182.207 222.291 182.324C223.614 182.481 224.931 182.937 226.212 183.282C228.54 183.907 230.869 184.524 233.187 185.185C233.095 184.249 233.302 182.118 232.808 181.288C232.289 180.417 229.827 180.035 228.681 179.77C225.793 179.101 222.707 179.482 219.772 179.622C219.824 180.29 219.862 180.958 219.887 181.627ZM247.636 188.279C250.377 188.047 253.121 187.866 255.869 187.77C259.012 187.66 256.728 187.158 256.662 185.241C252.531 185.9 248.364 186.03 244.246 186.593C240.835 187.06 236.771 188.279 233.291 187.624C231.65 187.316 229.975 187.196 228.229 187.022C226.582 186.857 225.028 186.09 223.4 185.899C221.574 185.685 219.708 186.712 217.891 186.983C217.121 187.098 216.942 187.62 216.578 186.693C216.201 185.732 217.282 184.946 217.707 184.371C218.204 183.7 217.997 184.79 218.273 183.741C218.35 183.447 218.141 182.709 218.102 182.392C218.005 181.592 217.754 180.724 217.714 179.925C217.678 179.191 217.672 178.071 218.468 177.643C218.954 177.382 219.299 177.763 219.723 177.689C223.031 177.114 226.921 177.067 230.276 177.622C233.912 178.223 237.043 176.631 240.627 175.985C244.832 175.227 249.081 175.113 253.322 174.793C256.948 174.52 263.574 173.1 264.956 177.732C265.347 179.045 265.917 182.658 264.864 183.774C263.483 185.241 260.285 184.773 258.499 185.154C258.766 185.914 259.562 186.431 259.287 187.336C261.789 187.454 262.232 189.818 262.624 192.025C263.03 194.308 262.238 195.216 264.42 196.405C267.462 198.062 270.684 199.735 270.624 203.682C270.594 205.666 270.372 208.659 268.335 209.688C266.342 210.695 263.096 210.525 260.9 210.891C256.646 211.599 252.377 212.43 248.098 212.855C243.541 213.308 238.908 213.68 234.343 213.882C231.856 213.993 229.708 214.369 227.306 213.532C224.944 212.709 222.634 212.108 220.198 211.497C217.792 210.895 210.429 210.083 212.575 205.97C212.918 205.311 214.091 204.788 214.281 204.166C214.587 203.162 213.554 202.378 213.597 201.471C213.676 199.811 215.549 199.603 216.842 199.603C214.625 198.217 217.593 196.575 217.576 195.398C217.545 193.325 214.966 191.979 214.82 190.241C214.465 186.011 227.884 190.415 229.949 191.33C228.359 193.688 220.984 191.648 218.788 191.29C219.087 192.077 219.374 192.785 219.461 193.591C219.531 194.248 219.28 194.998 219.51 195.659C219.872 196.704 219.86 196.504 221.143 196.789C222.092 197 223.031 197.243 223.978 197.466C225.431 197.809 227.718 198.73 229.158 198.679C230.421 198.635 230.172 199.027 230.403 197.624C230.528 196.87 230.316 196.068 230.188 195.33C229.923 193.782 229.535 192.316 230.887 191.206C232.176 190.146 234.894 189.642 236.475 189.268C239.984 188.439 244.035 188.236 247.636 188.279Z" fill="#22242A"/>
<path fill-rule="evenodd" clip-rule="evenodd" d="M264.336 161.855C260.524 161.216 256.652 161.059 252.795 161.253C253.004 162.207 253.213 163.161 253.423 164.115C257.036 163.184 260.701 162.639 264.336 161.855ZM233.343 169.258C231.815 169.146 232.878 169.829 233.255 170.83C233.719 172.059 233.62 173.613 233.727 174.907C238.199 173.201 243.402 172.203 248.157 171.629C250.412 171.357 252.7 171.279 254.967 171.163C255.638 171.129 258.058 171.409 258.549 170.958C258.913 170.623 258.657 168.773 258.307 168.364C256.404 166.146 249.047 168.062 246.386 168.26C242.022 168.586 237.738 169.366 233.343 169.258ZM239.695 163.312C243.655 163.693 247.479 163.657 251.439 164.25C251.139 161.733 251.498 161.09 248.642 160.957C246.097 160.838 243.561 160.742 241.028 160.743C235.332 160.746 229.649 160.637 223.947 160.637V163.195C229.221 162.655 234.411 163.631 239.695 163.312ZM220.653 172.72C223.152 172.709 225.514 173.652 228.013 173.896C229.509 174.043 229.039 174.228 230.077 174.979C231.694 176.149 232.159 175.526 231.956 173.936C231.27 168.558 224.461 169.764 220.537 169.465C220.795 170.748 220.202 171.835 219.329 172.72H220.653ZM247.666 165.815C244.071 165.873 240.472 166.077 236.903 166.003C235.305 165.969 233.235 165.653 231.669 165.925C230.522 166.125 229.562 166.709 228.304 166.926C230.152 167.922 231.089 167.249 233.032 167.022C234.974 166.796 236.944 166.801 238.893 166.683C242.094 166.489 245.506 165.722 248.66 165.931C248.718 165.487 248.387 165.448 247.666 165.815ZM219.155 177.462C217.505 177.459 219.775 175.583 220.072 175.397C218.246 175.397 217.804 174.302 218.333 172.543C218.832 170.885 219.201 171.393 217.947 170.013C217.002 168.973 216.86 168.208 217.973 167.046C219.105 165.864 221.399 166.198 222.402 165.223C224.111 163.562 221.906 160.255 224.273 158.983C225.873 158.123 228.453 158.23 230.219 158.048C231.927 157.873 233.694 157.839 235.413 157.815C239.16 157.764 243.052 158.393 246.783 158.738C248.143 158.864 249.672 159.414 251.012 159.415C252.378 159.416 253.81 159.112 255.221 159.147C256.861 159.188 258.441 159.067 260.132 159.336C261.428 159.543 264.454 159.651 265.445 160.615C268.746 163.825 260.918 165.3 259.572 165.66C260.942 167.162 260.885 169.147 260.679 171.037C261.331 171.037 262.456 170.753 262.794 171.485C263.213 172.394 261.661 172.63 261.293 172.736C259.182 173.346 256.71 173.178 254.534 173.4C250.183 173.843 245.884 174.098 241.579 174.922C239.48 175.324 237.394 175.821 235.298 176.212C234.936 176.28 234.572 176.334 234.206 176.375C233.645 176.327 233.463 176.679 233.661 177.433C233.079 177.717 230.909 177.009 230.238 176.901C226.397 176.277 222.96 176.536 219.155 177.462Z" fill="#22242A"/>
<path fill-rule="evenodd" clip-rule="evenodd" d="M296.723 214.764C294.246 216.714 291.943 218.554 289.259 220.248C291.156 220.189 297.464 217.164 296.723 214.764ZM295.756 211.586C294.403 210.424 293.06 210.543 291.386 210.191C289.845 209.867 288.347 209.308 286.809 208.936C285.602 208.645 284.407 208.25 283.204 207.975C281.506 207.585 281.338 208.014 279.776 208.904C274.237 212.061 268.038 214.233 262.203 216.795C263.916 218.303 267.77 218.368 269.911 218.849C271.474 219.2 272.962 219.68 274.459 220.235C275.853 220.753 278.1 221.943 279.57 221.983C280.811 222.016 281.82 220.795 282.889 220.137C284.294 219.271 285.693 218.421 287.11 217.577C290.108 215.791 292.911 213.602 295.756 211.586ZM270.721 224.374C270.082 223.759 268.157 223.786 267.355 223.598C265.776 223.229 264.219 222.845 262.619 222.568C260.022 222.119 255.919 221.918 255.637 218.548C255.402 215.748 258.785 215.083 260.764 214.135C263.74 212.708 266.776 211.391 269.828 210.132C272.689 208.952 275.592 207.955 278.505 206.935C279.073 206.737 279.534 206.764 279.998 206.309C280.364 205.95 280.251 205.254 280.652 204.879C281.57 204.02 282.762 204.472 283.865 204.692C286.371 205.192 288.973 205.848 291.362 206.775C293.845 207.739 296.065 207.94 296.662 210.755C297.931 210.159 298.886 210.072 298.734 211.823C298.69 212.337 298.316 212.896 298.227 213.426C298.095 214.208 298.326 215.033 298.195 215.816C297.72 218.667 293.877 220.778 291.495 221.897C288.559 223.277 284.77 225.316 281.491 225.586C277.997 225.873 274.19 224.501 270.721 224.374Z" fill="#22242A"/>
<path fill-rule="evenodd" clip-rule="evenodd" d="M226.25 177.086C225.208 177.093 224.166 177.1 223.125 177.106C224.165 176.911 225.206 176.909 226.25 177.086Z" fill="#22242A"/>
<path fill-rule="evenodd" clip-rule="evenodd" d="M165.312 66.875C165 67.3956 164.688 67.9162 164.375 68.4375C164.481 67.7662 164.72 67.1909 165.312 66.875Z" fill="#22242A"/>
<path fill-rule="evenodd" clip-rule="evenodd" d="M226.25 192.023C226.876 192.029 227.502 192.034 228.125 192.04C227.498 192.035 226.874 192.029 226.25 192.023Z" fill="#22242A"/>
<path fill-rule="evenodd" clip-rule="evenodd" d="M240.625 158.028C239.895 157.989 239.167 157.949 238.438 157.91C239.167 157.949 239.895 157.989 240.625 158.028Z" fill="#22242A"/>
<path fill-rule="evenodd" clip-rule="evenodd" d="M228.125 177.102C227.5 177.096 226.874 177.091 226.25 177.085C226.877 176.914 227.502 176.92 228.125 177.102Z" fill="#22242A"/>
<path fill-rule="evenodd" clip-rule="evenodd" d="M252.995 88.4375C252.978 87.8122 252.96 87.1869 252.942 86.5625C252.961 87.1882 252.978 87.8126 252.995 88.4375Z" fill="#22242A"/>
<path fill-rule="evenodd" clip-rule="evenodd" d="M146.738 182.812C146.725 182.291 146.712 181.77 146.7 181.25C146.713 181.771 146.725 182.292 146.738 182.812Z" fill="#22242A"/>
<path fill-rule="evenodd" clip-rule="evenodd" d="M163.75 157.343C164.168 157.343 164.585 157.344 165 157.345C164.581 157.345 164.166 157.344 163.75 157.343Z" fill="#22242A"/>
<path fill-rule="evenodd" clip-rule="evenodd" d="M219.688 45.0997C219.166 45.1375 218.646 45.175 218.125 45.2129C218.646 45.175 219.167 45.1375 219.688 45.0997Z" fill="#22242A"/>
<path fill-rule="evenodd" clip-rule="evenodd" d="M259.062 159.225C258.438 159.221 257.812 159.217 257.188 159.213C257.812 159.217 258.438 159.221 259.062 159.225Z" fill="#22242A"/>
<path fill-rule="evenodd" clip-rule="evenodd" d="M206.429 197.812C206.414 197.395 206.398 196.978 206.383 196.562C206.398 196.98 206.414 197.397 206.429 197.812Z" fill="#22242A"/>
<path fill-rule="evenodd" clip-rule="evenodd" d="M207.048 181.875C207.037 181.458 207.026 181.041 207.014 180.625C207.026 181.042 207.037 181.458 207.048 181.875Z" fill="#22242A"/>
<path fill-rule="evenodd" clip-rule="evenodd" d="M196.384 189.062C196.399 189.48 196.414 189.897 196.429 190.312C196.414 189.895 196.399 189.479 196.384 189.062Z" fill="#22242A"/>
<path fill-rule="evenodd" clip-rule="evenodd" d="M166.25 157.038C166.564 157.033 166.877 157.029 167.188 157.025C166.873 157.029 166.562 157.033 166.25 157.038Z" fill="#22242A"/>
<path fill-rule="evenodd" clip-rule="evenodd" d="M256.875 173.302C257.188 173.288 257.502 173.274 257.812 173.261C257.498 173.275 257.186 173.288 256.875 173.302Z" fill="#22242A"/>
<path fill-rule="evenodd" clip-rule="evenodd" d="M197.005 199.062C197.022 199.48 197.04 199.897 197.058 200.312C197.04 199.894 197.022 199.478 197.005 199.062Z" fill="#22242A"/>
<path fill-rule="evenodd" clip-rule="evenodd" d="M230.5 196.875C230.479 197.293 230.458 197.71 230.437 198.125C230.458 197.708 230.479 197.291 230.5 196.875Z" fill="#22242A"/>
<path fill-rule="evenodd" clip-rule="evenodd" d="M194.483 10.6709C194.041 10.6146 193.6 10.5588 193.158 10.5026C193.596 10.6038 194.075 10.2284 194.483 10.6709Z" fill="#22242A"/>
<path fill-rule="evenodd" clip-rule="evenodd" d="M175.487 170.938C175.475 171.355 175.463 171.772 175.451 172.188C175.462 171.769 175.475 171.353 175.487 170.938Z" fill="#22242A"/>
<path fill-rule="evenodd" clip-rule="evenodd" d="M148.626 209.062C148.605 208.646 148.583 208.229 148.562 207.812C148.583 208.229 148.605 208.646 148.626 209.062Z" fill="#22242A"/>
<path fill-rule="evenodd" clip-rule="evenodd" d="M249.688 173.916C250.002 173.909 250.315 173.902 250.625 173.896C250.31 173.903 249.999 173.91 249.688 173.916Z" fill="#22242A"/>
<path fill-rule="evenodd" clip-rule="evenodd" d="M143.59 98.125C143.593 98.5424 143.595 98.9598 143.597 99.375C143.595 98.9572 143.593 98.5411 143.59 98.125Z" fill="#22242A"/>
<path fill-rule="evenodd" clip-rule="evenodd" d="M137.034 191.875C137.032 192.292 137.031 192.71 137.029 193.125C137.03 192.707 137.032 192.291 137.034 191.875Z" fill="#22242A"/>
<path fill-rule="evenodd" clip-rule="evenodd" d="M214.92 189.375C214.908 189.792 214.897 190.21 214.885 190.625C214.714 190.197 214.734 189.781 214.92 189.375Z" fill="#22242A"/>
<path fill-rule="evenodd" clip-rule="evenodd" d="M206.724 187.5C206.72 187.083 206.717 186.666 206.714 186.25C206.717 186.668 206.72 187.084 206.724 187.5Z" fill="#22242A"/>
<path fill-rule="evenodd" clip-rule="evenodd" d="M270.625 224.518C270.939 224.527 271.253 224.536 271.562 224.544C271.247 224.536 270.936 224.527 270.625 224.518Z" fill="#22242A"/>
<path fill-rule="evenodd" clip-rule="evenodd" d="M259.375 184.849C259.584 184.846 259.794 184.842 260 184.838C259.79 184.842 259.583 184.846 259.375 184.849Z" fill="#22242A"/>
<path fill-rule="evenodd" clip-rule="evenodd" d="M251.562 185.782C251.772 185.781 251.981 185.781 252.188 185.781C251.978 185.781 251.77 185.782 251.562 185.782Z" fill="#22242A"/>
<path fill-rule="evenodd" clip-rule="evenodd" d="M129.862 187.812C129.85 187.5 129.837 187.187 129.825 186.875C129.838 187.188 129.85 187.501 129.862 187.812Z" fill="#22242A"/>
<path fill-rule="evenodd" clip-rule="evenodd" d="M257.812 187.575C257.541 187.85 257.192 187.688 256.875 187.705C257.188 187.662 257.5 187.619 257.812 187.575Z" fill="#22242A"/>
<path fill-rule="evenodd" clip-rule="evenodd" d="M220.625 177.577C220.212 177.772 219.795 177.799 219.375 177.591C219.792 177.586 220.208 177.582 220.625 177.577Z" fill="#22242A"/>
<path fill-rule="evenodd" clip-rule="evenodd" d="M247.812 188.286C247.396 188.283 246.979 188.28 246.562 188.276C246.979 188.28 247.396 188.283 247.812 188.286Z" fill="#22242A"/>
<path fill-rule="evenodd" clip-rule="evenodd" d="M230.312 177.401C229.896 177.363 229.479 177.325 229.062 177.287C229.479 177.325 229.896 177.363 230.312 177.401Z" fill="#22242A"/>
<path fill-rule="evenodd" clip-rule="evenodd" d="M134.856 175.938C134.848 176.251 134.84 176.564 134.831 176.875C134.839 176.561 134.848 176.249 134.856 175.938Z" fill="#22242A"/>
<path fill-rule="evenodd" clip-rule="evenodd" d="M206.695 192.812C206.711 192.499 206.727 192.186 206.743 191.875C206.727 192.189 206.711 192.501 206.695 192.812Z" fill="#22242A"/>
<path fill-rule="evenodd" clip-rule="evenodd" d="M249.688 174.791C249.271 174.826 248.854 174.861 248.438 174.896C248.854 174.861 249.271 174.826 249.688 174.791Z" fill="#22242A"/>
<path fill-rule="evenodd" clip-rule="evenodd" d="M146.732 173.75C146.723 173.437 146.715 173.124 146.706 172.812C146.714 173.126 146.723 173.438 146.732 173.75Z" fill="#22242A"/>
<path fill-rule="evenodd" clip-rule="evenodd" d="M198.943 149.688C198.918 150.001 198.894 150.313 198.869 150.625C198.894 150.312 198.919 150 198.943 149.688Z" fill="#22242A"/>
<path fill-rule="evenodd" clip-rule="evenodd" d="M255.938 159.144C255.52 159.36 255.104 159.333 254.688 159.142C255.104 159.142 255.521 159.143 255.938 159.144Z" fill="#22242A"/>
<path fill-rule="evenodd" clip-rule="evenodd" d="M206.434 202.5C206.415 202.187 206.397 201.874 206.379 201.562C206.397 201.876 206.415 202.188 206.434 202.5Z" fill="#22242A"/>
<path fill-rule="evenodd" clip-rule="evenodd" d="M206.426 205C206.413 204.687 206.399 204.375 206.386 204.062C206.4 204.376 206.413 204.688 206.426 205Z" fill="#22242A"/>
<path fill-rule="evenodd" clip-rule="evenodd" d="M147.337 163.75C147.342 163.437 147.346 163.124 147.35 162.812C147.346 163.126 147.342 163.438 147.337 163.75Z" fill="#22242A"/>
<path fill-rule="evenodd" clip-rule="evenodd" d="M236.25 213.602C236.459 213.596 236.668 213.591 236.875 213.585C236.665 213.591 236.457 213.597 236.25 213.602Z" fill="#22242A"/>
<path fill-rule="evenodd" clip-rule="evenodd" d="M135.494 216.25C135.477 215.937 135.46 215.624 135.443 215.312C135.461 215.625 135.477 215.938 135.494 216.25Z" fill="#22242A"/>
<path fill-rule="evenodd" clip-rule="evenodd" d="M203.125 218.9C203.334 218.904 203.544 218.908 203.75 218.913C203.54 218.909 203.333 218.904 203.125 218.9Z" fill="#22242A"/>
<path fill-rule="evenodd" clip-rule="evenodd" d="M248.438 158.954C248.021 158.922 247.604 158.89 247.188 158.859C247.604 158.89 248.021 158.922 248.438 158.954Z" fill="#22242A"/>
<path fill-rule="evenodd" clip-rule="evenodd" d="M250.625 159.284L249.688 159.154L250.625 159.284Z" fill="#22242A"/>
<path fill-rule="evenodd" clip-rule="evenodd" d="M203.255 192.188C203.273 191.25 203.29 190.312 203.308 189.375C203.29 190.313 203.273 191.25 203.255 192.188Z" fill="#22242A"/>
<path fill-rule="evenodd" clip-rule="evenodd" d="M178.89 157.812C178.901 158.542 178.911 159.272 178.923 160C178.912 159.27 178.901 158.541 178.89 157.812Z" fill="#22242A"/>
<path fill-rule="evenodd" clip-rule="evenodd" d="M125 203.584C124.478 203.59 123.956 203.597 123.438 203.604C123.961 203.597 124.48 203.591 125 203.584Z" fill="#22242A"/>
<path fill-rule="evenodd" clip-rule="evenodd" d="M167.812 141.418C167.29 141.41 166.768 141.402 166.25 141.394C166.774 141.403 167.293 141.411 167.812 141.418Z" fill="#22242A"/>
<path fill-rule="evenodd" clip-rule="evenodd" d="M154.375 153.595C154.896 153.594 155.417 153.594 155.938 153.593C155.417 153.593 154.896 153.594 154.375 153.595Z" fill="#22242A"/>
<path fill-rule="evenodd" clip-rule="evenodd" d="M161.25 141.083C160.832 141.09 160.414 141.098 160 141.104C160.419 141.097 160.835 141.09 161.25 141.083Z" fill="#22242A"/>
<path fill-rule="evenodd" clip-rule="evenodd" d="M127.5 203.597C127.082 203.595 126.665 203.593 126.25 203.591C126.669 203.593 127.085 203.595 127.5 203.597Z" fill="#22242A"/>
<path fill-rule="evenodd" clip-rule="evenodd" d="M183.75 43.9605C184.271 43.9242 184.792 43.8883 185.312 43.8521C184.792 43.8883 184.271 43.9242 183.75 43.9605Z" fill="#22242A"/>
<path fill-rule="evenodd" clip-rule="evenodd" d="M190.752 80.625C190.772 80.104 190.791 79.583 190.81 79.0625C190.791 79.5839 190.772 80.1044 190.752 80.625Z" fill="#22242A"/>
<path fill-rule="evenodd" clip-rule="evenodd" d="M178.125 85.4684C177.811 85.4684 177.498 85.4687 177.188 85.469C177.502 85.469 177.814 85.4687 178.125 85.4684Z" fill="#22242A"/>
<path fill-rule="evenodd" clip-rule="evenodd" d="M151.562 140.151C151.249 140.155 150.935 140.158 150.625 140.161C150.94 140.158 151.251 140.155 151.562 140.151Z" fill="#22242A"/>
<path fill-rule="evenodd" clip-rule="evenodd" d="M144.375 152.918C144.792 152.952 145.209 152.986 145.625 153.02C145.208 152.986 144.792 152.952 144.375 152.918Z" fill="#22242A"/>
<path fill-rule="evenodd" clip-rule="evenodd" d="M143.584 168.75C143.59 168.333 143.597 167.916 143.604 167.5C143.597 167.918 143.59 168.334 143.584 168.75Z" fill="#22242A"/>
<path fill-rule="evenodd" clip-rule="evenodd" d="M179.375 152.092C179.791 152.052 180.209 152.011 180.625 151.97C180.208 152.011 179.791 152.052 179.375 152.092Z" fill="#22242A"/>
<path fill-rule="evenodd" clip-rule="evenodd" d="M207.932 144.688C207.957 144.271 207.981 143.853 208.006 143.438C207.981 143.855 207.956 144.271 207.932 144.688Z" fill="#22242A"/>
<path fill-rule="evenodd" clip-rule="evenodd" d="M213.438 87.0798C213.854 87.0473 214.271 87.0149 214.688 86.9827C214.271 87.0149 213.854 87.0473 213.438 87.0798Z" fill="#22242A"/>
<path fill-rule="evenodd" clip-rule="evenodd" d="M170.938 141.723C170.624 141.72 170.31 141.717 170 141.714C170.315 141.717 170.626 141.72 170.938 141.723Z" fill="#22242A"/>
<path fill-rule="evenodd" clip-rule="evenodd" d="M143.617 192.188C143.601 191.874 143.586 191.562 143.571 191.25C143.586 191.563 143.601 191.875 143.617 192.188Z" fill="#22242A"/>
<path fill-rule="evenodd" clip-rule="evenodd" d="M178.654 176.25C179.337 177.944 178.953 176.744 178.971 177.135C178.389 177.213 178.283 176.918 178.654 176.25Z" fill="#22242A"/>
<path fill-rule="evenodd" clip-rule="evenodd" d="M150 140.173C149.687 140.162 149.373 140.151 149.062 140.139C149.378 140.15 149.689 140.162 150 140.173Z" fill="#22242A"/>
<path fill-rule="evenodd" clip-rule="evenodd" d="M213.877 108.437C213.896 108.021 213.916 107.604 213.936 107.188C213.916 107.605 213.896 108.021 213.877 108.437Z" fill="#22242A"/>
<path fill-rule="evenodd" clip-rule="evenodd" d="M143.595 189.062C143.594 188.646 143.593 188.229 143.592 187.812C143.593 188.23 143.594 188.646 143.595 189.062Z" fill="#22242A"/>
<path fill-rule="evenodd" clip-rule="evenodd" d="M143.561 179.688C143.583 179.375 143.605 179.062 143.626 178.75C143.604 179.063 143.583 179.376 143.561 179.688Z" fill="#22242A"/>
<path fill-rule="evenodd" clip-rule="evenodd" d="M208.55 138.75C208.579 138.437 208.608 138.124 208.637 137.812C208.608 138.126 208.579 138.438 208.55 138.75Z" fill="#22242A"/>
<path fill-rule="evenodd" clip-rule="evenodd" d="M139.489 180.625C139.517 180.938 139.545 181.251 139.573 181.562C139.545 181.25 139.517 180.937 139.489 180.625Z" fill="#22242A"/>
<path fill-rule="evenodd" clip-rule="evenodd" d="M138.86 178.125C138.891 178.438 138.921 178.751 138.952 179.062C138.921 178.749 138.891 178.437 138.86 178.125Z" fill="#22242A"/>
<path fill-rule="evenodd" clip-rule="evenodd" d="M201.371 135.312C201.395 135 201.418 134.687 201.441 134.375C201.417 134.688 201.394 135 201.371 135.312Z" fill="#22242A"/>
<path fill-rule="evenodd" clip-rule="evenodd" d="M41.875 177.706C42.2914 177.673 42.7082 177.64 43.125 177.607C42.7073 177.64 42.2909 177.673 41.875 177.706Z" fill="#22242A"/>
<path fill-rule="evenodd" clip-rule="evenodd" d="M198.612 185.312C198.599 185.626 198.587 185.939 198.576 186.25C198.588 185.936 198.6 185.624 198.612 185.312Z" fill="#22242A"/>
<path fill-rule="evenodd" clip-rule="evenodd" d="M203.559 186.25C203.582 185.937 203.605 185.624 203.629 185.312C203.605 185.625 203.582 185.938 203.559 186.25Z" fill="#22242A"/>
<path fill-rule="evenodd" clip-rule="evenodd" d="M201.669 134.062C201.702 133.75 201.736 133.437 201.768 133.125C201.735 133.438 201.702 133.75 201.669 134.062Z" fill="#22242A"/>
<path fill-rule="evenodd" clip-rule="evenodd" d="M44.375 177.405C44.7918 177.364 45.2086 177.323 45.625 177.282C45.2086 177.323 44.7914 177.364 44.375 177.405Z" fill="#22242A"/>
<path fill-rule="evenodd" clip-rule="evenodd" d="M176.875 141.403C176.666 141.405 176.456 141.408 176.25 141.41C176.46 141.408 176.668 141.405 176.875 141.403Z" fill="#22242A"/>
<path fill-rule="evenodd" clip-rule="evenodd" d="M143.595 176.875C143.594 176.562 143.593 176.249 143.592 175.938C143.593 176.251 143.594 176.563 143.595 176.875Z" fill="#22242A"/>
<path fill-rule="evenodd" clip-rule="evenodd" d="M204.243 176.25C204.132 175.927 204.078 175.608 204.292 175.312C204.276 175.626 204.259 175.938 204.243 176.25Z" fill="#22242A"/>
<path fill-rule="evenodd" clip-rule="evenodd" d="M198.92 170.312C198.911 170.625 198.901 170.938 198.893 171.25C198.902 170.936 198.911 170.624 198.92 170.312Z" fill="#22242A"/>
<path fill-rule="evenodd" clip-rule="evenodd" d="M199.19 201.25C199.209 201.563 199.229 201.876 199.248 202.188C199.229 201.875 199.209 201.562 199.19 201.25Z" fill="#22242A"/>
<path fill-rule="evenodd" clip-rule="evenodd" d="M222.188 87.5895C222.5 87.6342 222.813 87.6789 223.125 87.7229C222.812 87.6782 222.5 87.6339 222.188 87.5895Z" fill="#22242A"/>
<path fill-rule="evenodd" clip-rule="evenodd" d="M220.938 87.6187C221.357 87.644 221.818 87.4424 222.188 87.7377L220.938 87.6187Z" fill="#22242A"/>
<path fill-rule="evenodd" clip-rule="evenodd" d="M167.5 153.597C167.917 153.595 168.334 153.593 168.75 153.591C168.333 153.593 167.917 153.595 167.5 153.597Z" fill="#22242A"/>
<path fill-rule="evenodd" clip-rule="evenodd" d="M176.875 87.2896L178.125 87.398C177.708 87.3617 177.292 87.3258 176.875 87.2896Z" fill="#22242A"/>
<path fill-rule="evenodd" clip-rule="evenodd" d="M156.25 153.512C156.667 153.514 157.083 153.516 157.5 153.518C157.082 153.719 156.665 153.739 156.25 153.512Z" fill="#22242A"/>
<path fill-rule="evenodd" clip-rule="evenodd" d="M144.88 205.938C144.856 205.624 144.832 205.311 144.808 205C144.832 205.313 144.856 205.625 144.88 205.938Z" fill="#22242A"/>
<path fill-rule="evenodd" clip-rule="evenodd" d="M190.462 87.8125C190.466 87.4995 190.471 87.1868 190.476 86.875C190.471 87.1884 190.466 87.5007 190.462 87.8125Z" fill="#22242A"/>
<path fill-rule="evenodd" clip-rule="evenodd" d="M164.062 153.644C164.479 153.611 164.896 153.577 165.312 153.543C164.896 153.577 164.479 153.611 164.062 153.644Z" fill="#22242A"/>
<path fill-rule="evenodd" clip-rule="evenodd" d="M199.521 208.75C199.528 209.063 199.535 209.376 199.542 209.688C199.535 209.374 199.528 209.062 199.521 208.75Z" fill="#22242A"/>
<path fill-rule="evenodd" clip-rule="evenodd" d="M200.625 79.9032C201.042 79.8635 201.458 79.8239 201.875 79.7842C201.458 79.8239 201.042 79.8635 200.625 79.9032Z" fill="#22242A"/>
<path fill-rule="evenodd" clip-rule="evenodd" d="M206.051 159.688C206.08 159.375 206.108 159.062 206.137 158.75C206.108 159.063 206.079 159.375 206.051 159.688Z" fill="#22242A"/>
<path fill-rule="evenodd" clip-rule="evenodd" d="M220.433 76.25C220.457 75.937 220.481 75.6244 220.505 75.3125C220.481 75.6255 220.457 75.9377 220.433 76.25Z" fill="#22242A"/>
<path fill-rule="evenodd" clip-rule="evenodd" d="M190.772 49.375C190.778 49.6878 190.784 50.0009 190.79 50.3125C190.784 49.999 190.778 49.687 190.772 49.375Z" fill="#22242A"/>
<path fill-rule="evenodd" clip-rule="evenodd" d="M179.688 43.5417C180.104 43.5764 180.521 43.6114 180.938 43.6458C180.521 43.6111 180.104 43.5764 179.688 43.5417Z" fill="#22242A"/>
<path fill-rule="evenodd" clip-rule="evenodd" d="M117.188 221.155C117.604 221.114 118.021 221.073 118.438 221.032C118.021 221.073 117.604 221.114 117.188 221.155Z" fill="#22242A"/>
<path fill-rule="evenodd" clip-rule="evenodd" d="M180.312 40.4691C180.103 40.4688 179.894 40.4685 179.688 40.4685C179.897 40.4691 180.105 40.4691 180.312 40.4691Z" fill="#22242A"/>
<path fill-rule="evenodd" clip-rule="evenodd" d="M103.438 225.225C103.855 225.01 104.271 225.071 104.688 225.227C104.271 225.226 103.854 225.226 103.438 225.225Z" fill="#22242A"/>
<path fill-rule="evenodd" clip-rule="evenodd" d="M265.625 207.087C266.354 207.05 267.084 207.013 267.812 206.975C267.084 207.013 266.354 207.05 265.625 207.087Z" fill="#22242A"/>
<path fill-rule="evenodd" clip-rule="evenodd" d="M265.625 201.704C265.207 201.714 264.789 201.723 264.375 201.733C264.794 201.724 265.209 201.714 265.625 201.704Z" fill="#22242A"/>
<path fill-rule="evenodd" clip-rule="evenodd" d="M259.375 195.507C259.896 195.467 260.417 195.427 260.938 195.387C260.452 195.693 259.896 195.467 259.375 195.507Z" fill="#22242A"/>
<path fill-rule="evenodd" clip-rule="evenodd" d="M253.438 196.15C253.958 196.112 254.479 196.075 255 196.037C254.479 196.075 253.958 196.112 253.438 196.15Z" fill="#22242A"/>
<path fill-rule="evenodd" clip-rule="evenodd" d="M244.688 201.767C245.104 201.735 245.521 201.702 245.938 201.67C245.521 201.702 245.104 201.735 244.688 201.767Z" fill="#22242A"/>
<path fill-rule="evenodd" clip-rule="evenodd" d="M246.875 201.768C247.292 201.735 247.708 201.702 248.125 201.669C247.708 201.702 247.292 201.735 246.875 201.768Z" fill="#22242A"/>
<path fill-rule="evenodd" clip-rule="evenodd" d="M248.438 201.462C248.854 201.425 249.271 201.388 249.688 201.351C249.271 201.388 248.854 201.425 248.438 201.462Z" fill="#22242A"/>
<path fill-rule="evenodd" clip-rule="evenodd" d="M250.625 190.779C250.312 190.781 249.998 190.783 249.688 190.784C250.002 190.782 250.314 190.78 250.625 190.779Z" fill="#22242A"/>
<path fill-rule="evenodd" clip-rule="evenodd" d="M258.438 207.995C258.854 207.96 259.271 207.924 259.688 207.889C259.299 208.162 258.859 208.005 258.438 207.995Z" fill="#22242A"/>
<path fill-rule="evenodd" clip-rule="evenodd" d="M246.562 183.029C246.979 182.989 247.396 182.949 247.812 182.909C247.396 182.949 246.979 182.989 246.562 183.029Z" fill="#22242A"/>
<path fill-rule="evenodd" clip-rule="evenodd" d="M245 177.969C244.686 177.969 244.373 177.969 244.062 177.968C244.378 177.969 244.689 177.969 245 177.969Z" fill="#22242A"/>
<path fill-rule="evenodd" clip-rule="evenodd" d="M241.875 178.592C241.666 178.594 241.457 178.594 241.25 178.595C241.46 178.594 241.668 178.593 241.875 178.592Z" fill="#22242A"/>
<path fill-rule="evenodd" clip-rule="evenodd" d="M234.375 179.463C234.27 179.72 233.718 179.687 233.751 179.423C233.959 179.436 234.167 179.45 234.375 179.463Z" fill="#22242A"/>
<path fill-rule="evenodd" clip-rule="evenodd" d="M219.825 180.625C219.838 180.938 219.85 181.251 219.863 181.562C219.85 181.249 219.838 180.937 219.825 180.625Z" fill="#22242A"/>
<path fill-rule="evenodd" clip-rule="evenodd" d="M262.5 182.282C262.812 182.276 263.125 182.271 263.438 182.266C263.129 182.486 262.816 182.456 262.5 182.282Z" fill="#22242A"/>
<path fill-rule="evenodd" clip-rule="evenodd" d="M250.625 177.652C250.416 177.655 250.207 177.658 250 177.661C250.21 177.658 250.418 177.655 250.625 177.652Z" fill="#22242A"/>
<path fill-rule="evenodd" clip-rule="evenodd" d="M242.5 197.402C242.917 197.363 243.334 197.324 243.75 197.286C243.333 197.324 242.917 197.363 242.5 197.402Z" fill="#22242A"/>
<path fill-rule="evenodd" clip-rule="evenodd" d="M237.5 198.023L238.75 197.914L237.5 198.023Z" fill="#22242A"/>
<path fill-rule="evenodd" clip-rule="evenodd" d="M261.875 207.402C262.292 207.363 262.708 207.324 263.125 207.285C262.708 207.324 262.292 207.363 261.875 207.402Z" fill="#22242A"/>
<path fill-rule="evenodd" clip-rule="evenodd" d="M246.875 209.284C247.292 209.131 247.71 209.079 248.125 209.288C247.708 209.287 247.292 209.285 246.875 209.284Z" fill="#22242A"/>
<path fill-rule="evenodd" clip-rule="evenodd" d="M246.213 166.209L245.625 166.006C246.354 165.997 247.083 165.988 247.813 165.979C247.814 165.979 246.297 166.215 246.213 166.209Z" fill="#22242A"/>
<path fill-rule="evenodd" clip-rule="evenodd" d="M240.625 160.782C240.103 160.781 239.581 160.781 239.062 160.781C239.585 160.781 240.105 160.782 240.625 160.782Z" fill="#22242A"/>
<path fill-rule="evenodd" clip-rule="evenodd" d="M220.938 172.727C221.457 172.519 221.978 172.56 222.5 172.722C221.979 172.724 221.458 172.725 220.938 172.727Z" fill="#22242A"/>
<path fill-rule="evenodd" clip-rule="evenodd" d="M252.5 167.651C252.186 167.654 251.873 167.658 251.562 167.662C251.877 167.658 252.189 167.654 252.5 167.651Z" fill="#22242A"/>
<path fill-rule="evenodd" clip-rule="evenodd" d="M245.938 163.543C246.459 163.577 246.98 163.611 247.5 163.645C246.979 163.611 246.458 163.577 245.938 163.543Z" fill="#22242A"/>
<path fill-rule="evenodd" clip-rule="evenodd" d="M239.375 166.774C239.896 166.737 240.417 166.701 240.938 166.664C240.417 166.701 239.896 166.737 239.375 166.774Z" fill="#22242A"/>
<path fill-rule="evenodd" clip-rule="evenodd" d="M243.438 166.147C243.854 166.111 244.271 166.076 244.688 166.041C244.271 166.076 243.854 166.111 243.438 166.147Z" fill="#22242A"/>
<path fill-rule="evenodd" clip-rule="evenodd" d="M240 163.23C240.417 163.264 240.833 163.298 241.25 163.332C240.833 163.298 240.417 163.264 240 163.23Z" fill="#22242A"/>
<path fill-rule="evenodd" clip-rule="evenodd" d="M234.062 169.225C233.853 169.221 233.644 169.217 233.438 169.212C233.648 169.217 233.855 169.221 234.062 169.225Z" fill="#22242A"/>
<path fill-rule="evenodd" clip-rule="evenodd" d="M240.625 166.113C240.416 166.1 240.207 166.087 240 166.074C240.21 166.087 240.417 166.1 240.625 166.113Z" fill="#22242A"/>
<path fill-rule="evenodd" clip-rule="evenodd" d="M236.562 166.102C236.353 166.096 236.144 166.091 235.938 166.085C236.148 166.091 236.355 166.097 236.562 166.102Z" fill="#22242A"/>
<path fill-rule="evenodd" clip-rule="evenodd" d="M247.812 165.812C247.812 165.893 248.754 165.482 248.75 165.864L247.812 165.812Z" fill="#22242A"/>
<path fill-rule="evenodd" clip-rule="evenodd" d="M244.375 160.781C244.166 160.781 243.957 160.781 243.75 160.782C243.96 160.781 244.167 160.781 244.375 160.781Z" fill="#22242A"/>
<path fill-rule="evenodd" clip-rule="evenodd" d="M133.438 145.961C133.776 144.58 133.684 143.5 134.889 144.382C135.55 144.867 136.641 147.324 136.558 148.156C136.456 149.182 135.988 149.592 135.022 149.265C133.911 148.889 133.47 146.994 133.438 145.961Z" fill="#22242A"/>
<path fill-rule="evenodd" clip-rule="evenodd" d="M194.322 137.577C197.121 137.577 195.899 140.556 193.567 140.622C192.495 140.653 190.952 140.441 191.3 139.007C191.486 138.241 194.205 137.208 194.322 137.577Z" fill="#22242A"/>
<path fill-rule="evenodd" clip-rule="evenodd" d="M164.304 143.438C166.325 144.415 163.482 148.707 161.646 147.645C159.296 146.285 163.474 144.05 164.304 143.438Z" fill="#22242A"/>
<path fill-rule="evenodd" clip-rule="evenodd" d="M159.389 147.5C160.05 148.221 163.03 150.667 161.387 151.65C159.367 152.859 157.83 148.867 159.389 147.5Z" fill="#22242A"/>
<path fill-rule="evenodd" clip-rule="evenodd" d="M125.524 145.625C124.867 144.354 125.772 141.028 127.778 141.636C129.798 142.248 126.636 145.288 125.524 145.625Z" fill="#22242A"/>
<path fill-rule="evenodd" clip-rule="evenodd" d="M170.106 146.357C171.416 145.83 171.167 147.391 171.365 147.894C171.59 148.466 172.743 149.859 172.454 150.468C172.024 151.371 170.998 150.795 170.44 150.209C169.463 149.181 169.533 147.531 170.106 146.357Z" fill="#22242A"/>
<path fill-rule="evenodd" clip-rule="evenodd" d="M150.138 147.804C149.045 147.804 146.439 144.655 147.97 144.127C149.871 143.471 151.461 148.035 150.138 147.804Z" fill="#22242A"/>
<path fill-rule="evenodd" clip-rule="evenodd" d="M187.878 142.812C188.878 143.059 190.201 145.891 188.694 146.219C187.025 146.583 186.727 143.596 187.878 142.812Z" fill="#22242A"/>
<path fill-rule="evenodd" clip-rule="evenodd" d="M181.814 148.125C181.029 146.614 180.836 143.381 182.751 145.976C183.166 146.538 183.594 146.311 183.381 147.238C183.195 148.048 182.451 148.125 181.814 148.125Z" fill="#22242A"/>
<path fill-rule="evenodd" clip-rule="evenodd" d="M140.495 140.312C141.295 141.516 141.059 145.29 139.388 143.058C138.678 142.109 139.167 140.358 140.495 140.312Z" fill="#22242A"/>
<path fill-rule="evenodd" clip-rule="evenodd" d="M180.684 26.9056C182.235 26.5051 182.607 30.1623 181.702 30.5654C180.436 31.1296 180.594 27.5173 180.684 26.9056Z" fill="#22242A"/>
<path fill-rule="evenodd" clip-rule="evenodd" d="M278.799 212.703C277.359 212.619 275.342 212.226 277.523 211.204C278.907 210.557 280.964 210.512 282.425 210.777C283.432 210.961 284.943 211.795 283.406 212.877C282.507 213.51 279.892 212.734 278.799 212.703Z" fill="#22242A"/>
<path fill-rule="evenodd" clip-rule="evenodd" d="M277.185 215.313C276.769 215.266 276.353 215.219 275.938 215.172C276.271 214.566 277.241 214.439 277.185 215.313Z" fill="#22242A"/>
<path fill-rule="evenodd" clip-rule="evenodd" d="M279.062 212.643C279.48 212.652 279.898 212.661 280.312 212.67C279.894 212.661 279.478 212.652 279.062 212.643Z" fill="#22242A"/>
</svg>
